<svg xmlns="http://www.w3.org/2000/svg" width="95.44" height="85.17" viewBox="0 0 95.44 85.17"><defs><style>.a{fill:#fff;}.b{fill:#0079c1;}</style></defs><title>Artboard 1</title><rect class="a" x="10.04" width="85.15" height="85.16"/><rect class="a" x="10.06" width="85.15" height="85.15"/><path class="b" d="M63.86,59.33l-1.72-2.11v2.11h-5.6v-3.6a5.68,5.68,0,0,1-2.36.5h-2v3.1H43.74l-1.54-2-1.54,2h-14V46h14.1l1.54,2,1.54-2H95.2V0H10.06V35.91l3.2-7.49h5.51l1.79,4.18V28.42h6.9l1.07,3,1.06-3h30.8V30a6.53,6.53,0,0,1,4.42-1.55h9.8L76.4,32.6V28.42h5.81l1.53,2.38V28.42h5.8V41.79H83.78l-1.55-2.42v2.42H73.81l-.84-2H70.66l-.82,2H64.61a6.34,6.34,0,0,1-4.22-1.44v1.44H51.74L50,39.68v2.11H18l-.84-2h-2.3l-.82,2H10.06V85.15H95.2V58.34a5.39,5.39,0,0,1-3.23,1Z"/><path class="b" d="M68.71,40.12l.82-2h4.56l.84,2h2.88l-4.3-10H70.2l-4.29,10Zm3.1-7.67,1.4,3.44H70.42Z"/><polygon class="b" points="80.61 33.67 84.75 40.12 87.83 40.12 87.83 30.09 85.3 30.09 85.3 36.31 81.3 30.09 78.07 30.09 78.07 40.12 80.61 40.12 80.61 33.67"/><path class="b" d="M18.26,38.07l.83,2H22l-4.3-10H14.36l-4.29,10h2.81l.82-2ZM16,32.45l1.39,3.44H14.59Z"/><polygon class="b" points="34.77 40.12 34.77 30.09 30.77 30.09 28.53 36.5 26.28 30.09 22.23 30.09 22.23 40.12 24.75 40.12 24.75 32.7 27.39 40.12 29.62 40.12 32.26 32.7 32.26 40.12 34.77 40.12"/><polygon class="b" points="44.65 32.34 44.65 30.09 36.47 30.09 36.47 40.12 44.65 40.12 44.65 37.87 39.02 37.87 39.02 36.17 44.51 36.17 44.51 33.97 39.02 33.97 39.02 32.34 44.65 32.34"/><path class="b" d="M55.14,33.33a3.16,3.16,0,0,0-3.47-3.24H46.09v10h2.55V36.57h1l3,3.55h3.14l-3.25-3.65A3.12,3.12,0,0,0,55.14,33.33ZM51.4,34.39H48.64v-2H51.4a1.05,1.05,0,0,1,1.19,1C52.59,33.94,52.18,34.39,51.4,34.39Z"/><polygon class="b" points="56.17 30.09 56.17 35.2 56.17 40.12 58.72 40.12 58.72 35.21 58.72 30.09 56.17 30.09"/><polygon class="b" points="36.51 49.87 36.51 47.62 28.33 47.62 28.33 57.66 36.51 57.66 36.51 55.41 30.87 55.41 30.87 53.7 36.37 53.7 36.37 51.51 30.87 51.51 30.87 49.87 36.51 49.87"/><polygon class="b" points="39.83 57.66 42.19 54.55 44.57 57.66 47.77 57.66 43.73 52.6 47.74 47.62 44.62 47.62 42.26 50.7 39.9 47.62 36.7 47.62 40.72 52.66 36.71 57.66 39.83 57.66"/><path class="b" d="M48,47.62v10h2.54V54.39h3A3.3,3.3,0,0,0,57.11,51a3.23,3.23,0,0,0-3.48-3.39ZM54.55,51a1.08,1.08,0,0,1-1.18,1.12H50.53V49.87h2.84A1.09,1.09,0,0,1,54.55,51Z"/><path class="b" d="M67.26,50.86a3.17,3.17,0,0,0-3.48-3.24H58.21v10h2.54V54.1h1l3,3.56h3.15L64.63,54A3.11,3.11,0,0,0,67.26,50.86Zm-3.74,1.06H60.75V49.87h2.77a1.05,1.05,0,0,1,1.18,1C64.7,51.48,64.3,51.92,63.52,51.92Z"/><polygon class="b" points="76.46 49.87 76.46 47.62 68.29 47.62 68.29 57.66 76.46 57.66 76.46 55.41 70.83 55.41 70.83 53.7 76.33 53.7 76.33 51.51 70.83 51.51 70.83 49.87 76.46 49.87"/><path class="b" d="M82.8,55.41H77.6v2.25h5.18a3.14,3.14,0,0,0,3.47-3.26c0-1.82-1.14-2.88-3.13-2.88H80.75a.83.83,0,1,1,0-1.65h4.32l1-2.25h-5.3c-2.18,0-3.47,1.34-3.47,3.16a2.82,2.82,0,0,0,3.13,3H82.8a.83.83,0,1,1,0,1.65Z"/><path class="b" d="M89.94,49.87h4.32l1-2.25H90c-2.18,0-3.47,1.34-3.47,3.16a2.82,2.82,0,0,0,3.13,3H92a.83.83,0,1,1,0,1.65h-5.2v2.25H92a3.14,3.14,0,0,0,3.47-3.26c0-1.82-1.14-2.88-3.13-2.88H89.94a.83.83,0,1,1,0-1.65Z"/><path class="b" d="M60,35v.15c0,3.08,1.78,4.94,4.66,4.94h.21l1-2.25H65a2.38,2.38,0,0,1-2.54-2.69V35A2.37,2.37,0,0,1,65,32.41h2.7V30.09H64.8C61.65,30.09,60,32.18,60,35Z"/><path class="b" d="M0,81.15a4,4,0,0,1,4-4,4,4,0,0,1,0,8.06A4,4,0,0,1,0,81.15Zm7.37,0A3.35,3.35,0,0,0,4,77.72,3.32,3.32,0,0,0,.66,81.13,3.35,3.35,0,0,0,4,84.56,3.32,3.32,0,0,0,7.37,81.15ZM2.48,78.86H4.1c1,0,1.65.46,1.65,1.35a1.19,1.19,0,0,1-.89,1.24l1,1.81h-.9L4,81.55H3.31v1.71H2.48Zm1.58,2.06c.56,0,.87-.19.87-.67s-.31-.65-.88-.65H3.31v1.32Z"/></svg>