<svg xmlns="http://www.w3.org/2000/svg" width="163.5" height="151.22" viewBox="0 0 163.5 151.22"><defs><style>.a{stroke:#fffa73;stroke-linecap:round;stroke-linejoin:round;stroke-width:0;}</style></defs><title>Artboard 1</title><path d="M129.62,52.81a33.17,33.17,0,0,0-2.24,11.11h.52c.31-4.92,1.18-8.73,2.25-11A4.12,4.12,0,0,1,129.62,52.81Z"/><path d="M133.67,65.63a1.83,1.83,0,0,0-.57.08,1.38,1.38,0,0,0-.48.25,1,1,0,0,0-.32.39,1,1,0,0,0-.13.55.84.84,0,0,0,.13.53l.34.32a2.31,2.31,0,0,0,.45.21l.45.13.34.19.13.28-.06.18-.14.13-.18.08h-.22l-.42-.09-.34-.28-.62.68a2,2,0,0,0,.62.37,2,2,0,0,0,.71.13,2.7,2.7,0,0,0,.58-.08,1.78,1.78,0,0,0,.48-.23,1.74,1.74,0,0,0,.34-.42,1.45,1.45,0,0,0,.12-.57,1,1,0,0,0-.14-.55l-.34-.32a1.3,1.3,0,0,0-.43-.2l-.43-.13-.35-.17-.12-.26.05-.2.15-.12.19-.07.18,0,.34.08.3.19.59-.65a1.47,1.47,0,0,0-.56-.31A2.25,2.25,0,0,0,133.67,65.63Z"/><path d="M127,51.35a17,17,0,0,0-9.5,12.57h.74c1.13-5.62,4.7-10.15,9.34-12A2.55,2.55,0,0,1,127,51.35Z"/><path d="M122.88,63.92h.72c.64-5.11,2.48-9.32,4.91-11.51a4.52,4.52,0,0,1-.65-.36C125.37,54.45,123.51,58.75,122.88,63.92Z"/><path d="M134.49,52.93a32.15,32.15,0,0,1,2.26,11h.53c-.29-4.72-1.11-8.68-2.26-11.11A4.12,4.12,0,0,1,134.49,52.93Z"/><path d="M10.42,115.42l.16,0,7.67-3.77.29-.16L12.91,97.16a.36.36,0,0,0-.34-.23.25.25,0,0,0-.12,0,.38.38,0,0,0-.23.34.39.39,0,0,0,0,.14l5.38,13.66-7.38,3.63a.41.41,0,0,0-.2.31.45.45,0,0,0,0,.19Z"/><path d="M136.13,52.41c2.45,2.19,4.27,6.4,4.91,11.51h.73c-.64-5.17-2.48-9.47-5-11.87A3.06,3.06,0,0,1,136.13,52.41Z"/><path d="M35.22,81.26h-.08a.36.36,0,0,0-.35.27l-5,19.74h.74l4.95-19.55A.36.36,0,0,0,35.22,81.26Z"/><path d="M46.5,89.47c-2.49,2.39-4.35,6.7-5,11.87h.72c.64-5.1,2.48-9.31,4.91-11.51A5.75,5.75,0,0,1,46.5,89.47Z"/><path d="M137.65,51.35a3.17,3.17,0,0,1-.6.55c4.64,1.87,8.21,6.4,9.36,12h.74A17.08,17.08,0,0,0,137.65,51.35Z"/><path d="M33,81.91l-.12,0a.38.38,0,0,0-.35.25l-5.78,19.12h.76l5.72-18.9A.35.35,0,0,0,33,81.91Z"/><path d="M152.5,63.84h.74l-4.85-19.38a.38.38,0,0,0-.35-.28H148a.39.39,0,0,0-.29.37s0,0,0,.08Z"/><path d="M155.53,63.84h.75L151.08,45a.37.37,0,0,0-.35-.26.18.18,0,0,0-.1,0,.37.37,0,0,0-.25.44Z"/><path d="M50.28,73c-6,0-10.66,2.11-14.46,3.82-.41.2-.83.39-1.23.56C28.68,80,17.26,79.16,17.14,79.14s-.38.14-.39.34a.37.37,0,0,0,.32.39c.19,0,2,.14,4.53.14,3.94,0,9.58-.32,13.3-2l1.23-.56c5.8-2.63,13.68-6.2,25.31-1.37v-.79A29.41,29.41,0,0,0,50.28,73Z"/><path d="M112.9,63.92h.74a19.13,19.13,0,0,1,37.36,0h.76a19.71,19.71,0,0,0-2.68-6.52l-3-14.27a.34.34,0,0,0-.42-.28.36.36,0,0,0-.29.35s0,0,0,.08l2.63,12.62a21.53,21.53,0,0,0-2.48-2.66l-1.78-11a.39.39,0,0,0-.42-.31.36.36,0,0,0-.3.39v0l1.65,10.19a17.48,17.48,0,0,0-2-1.42l-1.25-9.52a.34.34,0,0,0-.4-.31.35.35,0,0,0-.31.38v0l1.17,9a21.55,21.55,0,0,0-2-1L139,40.4a.33.33,0,0,0-.41-.32.35.35,0,0,0-.31.37v0l.9,8.89c-.54-.2-1.1-.37-1.67-.52l-.63-9.08a.34.34,0,0,0-.39-.33.37.37,0,0,0-.34.36v0l.62,8.83c-.61-.14-1.21-.24-1.83-.32l-.34-9a.38.38,0,0,0-.37-.36.37.37,0,0,0-.36.37l.35,8.88a15.76,15.76,0,0,0-1.68-.09V39.09a.35.35,0,0,0-.35-.36.36.36,0,0,0-.36.36v9.09a17.73,17.73,0,0,0-1.8.13l.27-9a.37.37,0,0,0-.36-.37.36.36,0,0,0-.37.34l-.26,9.11c-.55.09-1.06.19-1.58.31L128.2,40v0a.38.38,0,0,0-.34-.36.37.37,0,0,0-.39.34L127,48.91c-.53.14-1,.33-1.57.51l.9-9.1v0a.33.33,0,0,0-.32-.35.35.35,0,0,0-.39.32l-.93,9.46a16.43,16.43,0,0,0-2.06,1l1.29-9.69V41a.33.33,0,0,0-.31-.32.36.36,0,0,0-.41.31L121.79,51.2a21.1,21.1,0,0,0-2,1.47l1.7-10.26s0,0,0-.07a.36.36,0,0,0-.31-.34.36.36,0,0,0-.42.29l-1.86,11.12a19.41,19.41,0,0,0-2.39,2.66l2.7-12.57v-.08a.37.37,0,0,0-.27-.36.38.38,0,0,0-.44.28l-3.06,14.3A19.62,19.62,0,0,0,112.9,63.92Z"/><path d="M111.91,63.84l4.93-19.55s0,0,0-.08a.38.38,0,0,0-.28-.37h-.08a.36.36,0,0,0-.35.27l-5,19.74Z"/><path d="M150.58,66.79l.36-.26a1.15,1.15,0,0,1,.45-.11.83.83,0,0,1,.43.1l.31.23.67-.54-.28-.28-.34-.17-.36-.09-.34,0a2.52,2.52,0,0,0-.85.14,2,2,0,0,0-.68.42,1.61,1.61,0,0,0-.43.65,2.11,2.11,0,0,0-.16.85,2.18,2.18,0,0,0,.16.87,1.76,1.76,0,0,0,.43.65,2.23,2.23,0,0,0,.68.42,2.52,2.52,0,0,0,.85.14,2.24,2.24,0,0,0,.79-.17,1.42,1.42,0,0,0,.62-.52l-.71-.54-.34.31a1,1,0,0,1-.48.11,1.08,1.08,0,0,1-.44-.09l-.35-.26-.23-.41a1.19,1.19,0,0,1-.08-.51,1.15,1.15,0,0,1,.08-.49A1.27,1.27,0,0,1,150.58,66.79Z"/><path d="M146.33,100.64a32,32,0,0,0-13.53-3,28.9,28.9,0,0,0-9.57,1.49l-.26.14c-.47.28-9.67,4.35-17.47,4.93a20.56,20.56,0,0,1-13.89-3.8l-.36-.31-4.88,10.3-.1.2.16.19c.18.21,4.61,5.2,15.89,5.8,8.68.45,11.91-.93,16-2.68,1.32-.55,2.68-1.13,4.35-1.73,7.32-2.57,13-2.63,18.57-.2,6.26,2.75,11.37,4.72,20.15,4.72.71,0,1.4,0,2.09-.11v-.73a20.59,20.59,0,0,1-2.09.11c-8.64,0-13.69-1.93-19.86-4.66a21.2,21.2,0,0,0-8.65-1.84,31.69,31.69,0,0,0-10.46,2c-1.68.6-3.06,1.18-4.38,1.75-4.19,1.78-7.2,3.08-15.7,2.61-9.79-.51-14.35-4.51-15.22-5.38l4.38-9.24a20.9,20.9,0,0,0,12.3,3.76c.56,0,1.15,0,1.74-.06,7.91-.6,17.32-4.76,17.78-5.06l.17-.08A31.07,31.07,0,0,1,146,101.29c7.37,3.43,13,3.95,17.48,3.3v-.71C159.15,104.55,153.65,104,146.33,100.64Z"/><path d="M116.64,65.77a2.65,2.65,0,0,0-1.7,0,2,2,0,0,0-.67.42,1.63,1.63,0,0,0-.44.65,2.11,2.11,0,0,0-.16.85,2.18,2.18,0,0,0,.16.87,1.79,1.79,0,0,0,.44.65,2.18,2.18,0,0,0,.67.42,2.65,2.65,0,0,0,1.7,0,2.18,2.18,0,0,0,.67-.42,2,2,0,0,0,.45-.65,2.37,2.37,0,0,0,.15-.87,2.3,2.3,0,0,0-.15-.85,1.76,1.76,0,0,0-.45-.65A2,2,0,0,0,116.64,65.77Zm.3,2.43-.25.41-.39.26a1.36,1.36,0,0,1-.51.09,1.22,1.22,0,0,1-.49-.09l-.39-.26-.25-.41a1.36,1.36,0,0,1-.09-.51,1.33,1.33,0,0,1,.09-.49,1,1,0,0,1,.25-.41l.39-.26a1.22,1.22,0,0,1,.49-.11,1.36,1.36,0,0,1,.51.11l.39.26a1.79,1.79,0,0,1,.25.41,1.93,1.93,0,0,1,.07.49A2,2,0,0,1,116.94,68.2Z"/><path d="M40.46,67.86a1,1,0,0,1-.44.27,1.34,1.34,0,0,1-.48,0A1,1,0,0,1,39.1,68l-.35-.31a1.73,1.73,0,0,1-.23-.45,1.53,1.53,0,0,1-.07-.51,1.12,1.12,0,0,1,.13-.45l.28-.37a1.46,1.46,0,0,1,.41-.23,1.29,1.29,0,0,1,.48,0,.8.8,0,0,1,.44.17l.43-.86a1.5,1.5,0,0,0-.77-.21h-.16a2.77,2.77,0,0,0-.71.1,2.31,2.31,0,0,0-.79.42,2,2,0,0,0-.56.62,2.15,2.15,0,0,0-.24.79,2.35,2.35,0,0,0,.1.89,2.59,2.59,0,0,0,.42.81,2,2,0,0,0,.65.51,2.17,2.17,0,0,0,.79.22h.14a2.91,2.91,0,0,0,.76-.11,2.32,2.32,0,0,0,.82-.45,2.1,2.1,0,0,0,.49-.67l-.85-.41Z"/><path d="M69.37,82.17l-.1,0a.35.35,0,0,0-.25.45l5.16,18.62h.74l-5.2-18.82A.38.38,0,0,0,69.37,82.17Z"/><path d="M83.46,70.89l.32.24.4.09h.42l.37,0,.3,0,.21.08.13.17v.2l-.06.17-.14.14-.2.1a1.14,1.14,0,0,1-.49.06,1.23,1.23,0,0,1-.48-.16l-.39.85a1.8,1.8,0,0,0,.79.17,2.21,2.21,0,0,0,.85-.15,2.07,2.07,0,0,0,.53-.28,1.59,1.59,0,0,0,.38-.4,1.3,1.3,0,0,0,.19-.53,1.73,1.73,0,0,0-.09-.62,1,1,0,0,0-.3-.44l-.4-.22a1.49,1.49,0,0,0-.46-.06H84.6l-.21,0-.17-.06-.1-.16v-.2l.07-.17.16-.12.17-.08.42,0,.4.12.36-.85a2,2,0,0,0-.73-.14,2.3,2.3,0,0,0-.71.14,2.46,2.46,0,0,0-.51.26,1.52,1.52,0,0,0-.41.39,1.27,1.27,0,0,0-.2.51,1.17,1.17,0,0,0,.08.59A.92.92,0,0,0,83.46,70.89Z"/><path d="M82.65,111.55l8.08,4,.15.05.33-.2a.43.43,0,0,0,0-.19.4.4,0,0,0-.21-.31l-7.47-3.73,5.26-14a.7.7,0,0,0,0-.14.37.37,0,0,0-.24-.33l-.14,0a.35.35,0,0,0-.33.24l-5.37,14.34Z"/><path d="M80.67,73l-.18.1-.2,0a1,1,0,0,1-.5-.08,1.66,1.66,0,0,1-.43-.27l-.59.71a1.8,1.8,0,0,0,.73.37,1.82,1.82,0,0,0,.66.09h.19a1.75,1.75,0,0,0,.59-.14,1.47,1.47,0,0,0,.48-.29,1.11,1.11,0,0,0,.3-.45,1.27,1.27,0,0,0,.08-.62.87.87,0,0,0-.17-.51l-.32-.31-.44-.18-.45-.13-.26-.06L80,71.17l-.13-.11-.06-.17,0-.2.12-.14.19-.09.2,0,.4.06.36.23.57-.72a2,2,0,0,0-.66-.31,1.91,1.91,0,0,0-.57-.08h-.16a2.8,2.8,0,0,0-.56.12,1.69,1.69,0,0,0-.49.28,1.14,1.14,0,0,0-.33.42,1.27,1.27,0,0,0-.09.6,1.47,1.47,0,0,0,.12.47l.27.31.35.18.4.13.38.09.27.09.17.14.08.19,0,.21Z"/><path d="M11.67,130.89a7.86,7.86,0,0,1-2-6.75,3.2,3.2,0,0,1,1.42-2.32,4.23,4.23,0,0,1,3-.12c1.34.77,1.92,1.78,1.64,2.85a2,2,0,0,1-1.55,1.56c-1,0-1-1.19-1-1.33a.38.38,0,0,0-.38-.37.37.37,0,0,0-.35.37,1.89,1.89,0,0,0,1.76,2.06,2.72,2.72,0,0,0,2.24-2.11c.19-.65.34-2.33-2-3.68a5.48,5.48,0,0,0-1.82-.32,3.69,3.69,0,0,0-1.86.46A3.79,3.79,0,0,0,9,124a8.46,8.46,0,0,0,2.15,7.35c.08.11,1.81,2.6,6.85,2.6.36,0,.74,0,1.15,0a.38.38,0,0,0,.34-.39.36.36,0,0,0-.41-.34C13.62,133.57,11.74,131,11.67,130.89Z"/><path d="M60.17,134a31,31,0,0,0-14.44-.85,24.12,24.12,0,0,0-3.67.85l-1.27.52-.33.11,0,0c-.83.36-1.64.68-2.39,1-.27.13-.53.24-.79.34.86-1.77,2.29-5,1.87-5.92a.62.62,0,0,0-.4-.36c-1-.24-5.48,3.28-8.74,5.94.68-1.09,1.23-2.27,1-2.89a.85.85,0,0,0-.78-.48h-.08a10.09,10.09,0,0,0-3.28,1.18c-2.08,1-4.88,2.26-7.3,2.1,1.29-.65,3-1.75,2.94-2.77-.06-.82-1.11-1.1-1.47-1.19h-.12c-.08,0-5.28.54-7.4-1.37a6.69,6.69,0,0,0,4.8-1.4c1.35-1.21,1.92-3.11,1.7-5.67a7.14,7.14,0,0,0-7.4-6.31H12.2c-5.65.17-7.07,5.9-7.43,8.36a6.88,6.88,0,0,0,.05,1.91c.31,2.71,3.78,10.69,12.25,12.46a34,34,0,0,0,6.83.82c4.62,0,8.15-1.46,14.41-4.06.86-.35,1.78-.74,2.74-1.12a26.1,26.1,0,0,1,4.86-1.35,29.69,29.69,0,0,1,15.53,1.52v-.86Zm-36.29,5.66a32.91,32.91,0,0,1-6.67-.8C9.14,137.19,5.83,129.6,5.53,127a6.42,6.42,0,0,1,0-1.74c.31-2.27,1.63-7.58,6.72-7.73h.31a6.35,6.35,0,0,1,6.69,5.65c.21,2.3-.29,4-1.45,5.05-1.9,1.72-5.06,1.13-5.09,1.13l-.36.14,0,.4c1.72,2.93,7.8,2.45,8.56,2.37.54.16.85.36.87.54,0,.58-1.82,1.78-3.58,2.56l-.22.35.27.33c2.95.8,6.4-.81,8.91-2a10.29,10.29,0,0,1,3-1.1l.2,0c.23.52-1.11,2.71-2.51,4.44l0,.5.48,0c4.32-3.64,9.24-7.42,10.19-7.59.16.61-1,3.52-2.24,6C31.16,138.5,28,139.66,23.88,139.66Z"/><path d="M37.05,132.06a.41.41,0,0,0-.23-.07.35.35,0,0,0-.28.14,34.12,34.12,0,0,1-3.14,3.77.37.37,0,0,0-.21.47l.34.23.14,0c.51-.2,2.37-2.6,3.44-4A.36.36,0,0,0,37.05,132.06Z"/><path d="M151.79,104.56C143.11,101,137,99.75,132,99.75h0c-5.59,0-9.81,1.61-14.75,3.51-1.2.46-2.42.93-3.7,1.39A27.21,27.21,0,0,1,93.34,104L93,103.8l-3.5,6.79.26.17c11.7,8,25.62,1.89,25.78,1.83,14.29-7.12,18.86-5.26,27.13-1.91,2.25.92,4.8,1.95,7.86,2.93a30.24,30.24,0,0,0,9.08,1.44,29.51,29.51,0,0,0,3.87-.27v-.73a28.49,28.49,0,0,1-12.73-1.14c-3-1-5.57-2-7.81-2.89-4.1-1.67-7.4-3-11.51-3s-8.95,1.32-16.2,4.94c-.14.06-13.49,5.91-24.8-1.6l2.88-5.57a27.65,27.65,0,0,0,11,2.22,28,28,0,0,0,9.51-1.66c1.28-.46,2.52-.93,3.69-1.39,9.21-3.53,15.86-6.08,34,1.28a26.46,26.46,0,0,0,12,1.46V106A25.93,25.93,0,0,1,151.79,104.56Z"/><path d="M35.28,103.2a2.34,2.34,0,0,0-1.7,0,1.72,1.72,0,0,0-.66.41,1.59,1.59,0,0,0-.45.65,2.15,2.15,0,0,0-.16.85,2.1,2.1,0,0,0,.16.86,1.69,1.69,0,0,0,.45.66,1.83,1.83,0,0,0,.66.4,2.34,2.34,0,0,0,1.7,0,1.87,1.87,0,0,0,.67-.4,2,2,0,0,0,.6-1.52,2.14,2.14,0,0,0-.15-.85,1.93,1.93,0,0,0-.45-.65A1.76,1.76,0,0,0,35.28,103.2Zm.28,2.43-.25.4-.38.26a1.28,1.28,0,0,1-.5.09,1.44,1.44,0,0,1-.51-.09l-.39-.26-.23-.4a1.46,1.46,0,0,1-.09-.52,1.48,1.48,0,0,1,.09-.51,1.34,1.34,0,0,1,.23-.4l.39-.26a1.44,1.44,0,0,1,.51-.09,1.28,1.28,0,0,1,.5.09l.38.26a1.22,1.22,0,0,1,.25.4,1.48,1.48,0,0,1,.09.51A1.46,1.46,0,0,1,35.56,105.63Z"/><path d="M54.77,89.83c2.45,2.2,4.28,6.41,4.91,11.51h.73c-.64-5.17-2.49-9.48-5-11.87A5,5,0,0,1,54.77,89.83Z"/><path d="M33.36,69.41a1,1,0,0,0-.07-.73,1.36,1.36,0,0,0-.36-.49,1.07,1.07,0,0,0-.48-.2.93.93,0,0,0-.24,0,1.54,1.54,0,0,0-.3,0,2.39,2.39,0,0,0-.56.17l-1.44.62,1.64,3.78.9-.39-.65-1.5.31-.14,1.46,1.14,1.06-.46L33,70A1.26,1.26,0,0,0,33.36,69.41Zm-1,.14-.18.17-.22.12-.43.19-.39-.88.48-.22.23-.08h.22l.2.06.15.18,0,.27Z"/><path d="M45.65,88.78c-4.75,2.06-8.37,6.76-9.52,12.56h.75c1.14-5.63,4.71-10.16,9.36-12A3.13,3.13,0,0,1,45.65,88.78Z"/><path d="M59.11,72.69a21.22,21.22,0,0,0-8.67-1.83,31.29,31.29,0,0,0-10.44,2c-1.69.59-3.06,1.18-4.38,1.73-4.19,1.8-7.21,3.08-15.7,2.63-9.79-.52-14.36-4.51-15.22-5.38l4.38-9.24a21.14,21.14,0,0,0,14,3.68c7.92-.6,17.32-4.76,17.79-5l.17-.09a30.88,30.88,0,0,1,20.37.59V61a32.2,32.2,0,0,0-11.09-2,29.21,29.21,0,0,0-9.56,1.48l-.28.14c-.45.28-9.67,4.35-17.45,4.94A20.63,20.63,0,0,1,9.17,61.8l-.36-.31L3.92,71.78,3.83,72l.16.17c.18.22,4.61,5.22,15.88,5.82C21,78,22,78.07,23,78.07A27.77,27.77,0,0,0,35.9,75.3c1.32-.57,2.68-1.14,4.35-1.73,7.32-2.57,13-2.64,18.56-.22.9.4,1.77.78,2.63,1.14V73.7Z"/><path d="M28.43,135.17a.35.35,0,0,0-.05-.51.36.36,0,0,0-.51.05c-.2.25-5,5.89-15.89-.73l-.15-.1A11.9,11.9,0,0,1,7.5,124.5a6.67,6.67,0,0,1,2.12-4.29,4.89,4.89,0,0,1,4-.75,4.57,4.57,0,0,1,3.89,5.44s-.78,3.3-3.22,3.3A3.59,3.59,0,0,1,11.84,127a3,3,0,0,1-.29-2.6,2,2,0,0,1,1.32-.89c.38,0,.77.27,1.13.85a.37.37,0,0,0,.61-.41,2.11,2.11,0,0,0-1.74-1.17c-1.12,0-1.92,1.24-2,1.28l0,.11a3.68,3.68,0,0,0,.39,3.26,4.27,4.27,0,0,0,3,1.47c3.05,0,3.92-3.71,3.95-3.89a5.35,5.35,0,0,0-4.47-6.29,7.76,7.76,0,0,0-1.4-.13,5.09,5.09,0,0,0-3.2,1,7.38,7.38,0,0,0-2.41,4.84,12.63,12.63,0,0,0,4.63,10l.21.14c4.15,2.54,7.47,3.28,10,3.28a11.71,11.71,0,0,0,2.74-.32A8.1,8.1,0,0,0,28.43,135.17Z"/><path d="M34.82,64.63c-1.18.45-2.4.91-3.68,1.38a27.18,27.18,0,0,1-20.24-.67l-.32-.17L7.08,72l.26.18a24.26,24.26,0,0,0,13.9,4.12,32.09,32.09,0,0,0,11.88-2.31C47.41,66.84,52,68.68,60.25,72l1.19.49v-.78l-.92-.38c-4.12-1.67-7.4-3-11.51-3s-8.95,1.32-16.2,4.92c-.14.06-13.49,5.91-24.8-1.58l2.88-5.58a28.14,28.14,0,0,0,20.48.56c1.3-.47,2.54-.93,3.71-1.38,7.78-3,13.74-5.27,26.36-1.45v-.77a41.22,41.22,0,0,0-11.84-2C44,61.11,39.77,62.73,34.82,64.63Z"/><path d="M66.67,81.6l-.09,0a.35.35,0,0,0-.26.43l4.82,19.21h.75L67,81.88A.38.38,0,0,0,66.67,81.6Z"/><path d="M53.14,90.36a32.25,32.25,0,0,1,2.25,11h.51a33.24,33.24,0,0,0-2.24-11.12Z"/><path d="M52,107.19a2.18,2.18,0,0,0,.57-.08,1.57,1.57,0,0,0,.48-.25,1.12,1.12,0,0,0,.34-.4,1.29,1.29,0,0,0,.12-.57.85.85,0,0,0-.14-.54L53,105a2.35,2.35,0,0,0-.43-.19l-.43-.12-.34-.17-.14-.27.06-.2.14-.12.2-.06.18,0,.34.06.3.2.59-.65a1.63,1.63,0,0,0-.56-.31,1.74,1.74,0,0,0-.65-.11,1.82,1.82,0,0,0-.56.09,1.35,1.35,0,0,0-.48.24,1.34,1.34,0,0,0-.34.4,1.4,1.4,0,0,0-.12.56.89.89,0,0,0,.14.52l.34.33a4.68,4.68,0,0,0,.45.2l.45.14.34.17.14.28-.07.18-.14.14-.18.06-.22,0-.42-.09-.34-.28-.61.68a1.7,1.7,0,0,0,.61.37A2.05,2.05,0,0,0,52,107.19Z"/><polygon points="162.86 0 163.5 1.96 163.5 0 162.86 0"/><path d="M150.23,22.7a29.59,29.59,0,0,1-3.16-3.77.33.33,0,0,0-.27-.14.35.35,0,0,0-.22.08.34.34,0,0,0-.08.49c1.07,1.41,2.92,3.81,3.43,4l.14,0,.34-.23A.35.35,0,0,0,150.23,22.7Z"/><path d="M44.56,12.73c-4.74,2-8.36,6.76-9.51,12.54h.74c1.15-5.61,4.72-10.15,9.36-12A3.84,3.84,0,0,1,44.56,12.73Z"/><path d="M153.49,45.6a.23.23,0,0,0-.11,0,.38.38,0,0,0-.26.32.7.7,0,0,0,0,.14L163.5,77.75V75.4l-9.67-29.55A.36.36,0,0,0,153.49,45.6Z"/><path d="M19.33,26.94l.13,0,.34-.23L26.31,7.65a.34.34,0,0,0-.22-.45l-.12,0a.36.36,0,0,0-.34.24L19.12,26.48A.34.34,0,0,0,19.33,26.94Z"/><path d="M34.2,27.14a2.48,2.48,0,0,0-1.7,0,2,2,0,0,0-.67.41,1.8,1.8,0,0,0-.45.66,2.48,2.48,0,0,0,0,1.7,1.61,1.61,0,0,0,.45.65,1.66,1.66,0,0,0,.67.42,2.65,2.65,0,0,0,1.7,0,1.73,1.73,0,0,0,.67-.42,1.7,1.7,0,0,0,.44-.65,2.34,2.34,0,0,0,0-1.7,1.91,1.91,0,0,0-.44-.66A2.15,2.15,0,0,0,34.2,27.14Zm.28,2.43-.25.41-.39.24a1,1,0,0,1-.49.11,1.06,1.06,0,0,1-.51-.11L32.45,30l-.23-.41a1.36,1.36,0,0,1-.09-.51,1.44,1.44,0,0,1,.09-.51,1,1,0,0,1,.23-.4l.39-.26a1.19,1.19,0,0,1,.51-.1,1.1,1.1,0,0,1,.49.1l.39.26a1,1,0,0,1,.25.4,1.44,1.44,0,0,1,.09.51A1.36,1.36,0,0,1,34.48,29.57Z"/><path d="M162.67,94.18c-.42.08-1.69.29-1.78,1.14v.1c0,.85,1.37,1.77,2.61,2.44V97c-1.1-.62-1.94-1.26-1.9-1.61,0-.11.28-.34,1.14-.51.12,0,.39,0,.76,0v-.72l-.73-.06Z"/><path d="M70.06,25.21h.74L65.94,5.83a.35.35,0,0,0-.34-.28h-.1a.38.38,0,0,0-.27.44Z"/><path d="M29.45,25.21,34.4,5.64a.34.34,0,0,0-.26-.43l-.1,0a.36.36,0,0,0-.34.28l-5,19.74Z"/><path d="M40.43,25.27h.73c.64-5.09,2.48-9.31,4.91-11.51a3.33,3.33,0,0,1-.65-.34C42.92,15.8,41.07,20.12,40.43,25.27Z"/><path d="M17,42.18l.12,0,.34-.25.11-.34,0,0,1.16-2.83a.36.36,0,0,0-.11-.42L29.08,6.88a.37.37,0,0,0-.23-.47h-.11a.36.36,0,0,0-.34.25L16.76,41.73A.36.36,0,0,0,17,42.18Z"/><path d="M68.56,25.27h.76a19.64,19.64,0,0,0-2.68-6.5l-3-14.27a.35.35,0,0,0-.36-.3h-.06a.36.36,0,0,0-.28.43L65.6,17.27a20.07,20.07,0,0,0-2.47-2.66L61.44,4.25v4.5l.84,5.15q-.41-.33-.84-.63v.9A19.16,19.16,0,0,1,68.56,25.27Z"/><path d="M162.88,32.47h-.18a2,2,0,0,0-.58.13,1.29,1.29,0,0,0-.49.26,1.27,1.27,0,0,0-.33.43,1.38,1.38,0,0,0-.09.59,1.19,1.19,0,0,0,.13.46l.27.31.36.2.39.11.37.09.28.1.17.14.07.18,0,.22-.1.15L163,36l-.22,0a1,1,0,0,1-.5-.08,1,1,0,0,1-.43-.28l-.59.71a1.72,1.72,0,0,0,.73.39,2.23,2.23,0,0,0,.63.09h.24a2.46,2.46,0,0,0,.57-.13l.12-.07V34.37l-.18-.08-.45-.11-.27-.07-.2-.08-.14-.11-.06-.17,0-.2.14-.14.17-.08.2,0,.41.06.35.22v-1l-.09,0A2.49,2.49,0,0,0,162.88,32.47Z"/><path d="M151.79,28.78C143.11,25.26,137,24,132,24c-5.59,0-9.81,1.62-14.75,3.51-1.2.45-2.42.93-3.7,1.4a27.33,27.33,0,0,1-20.24-.68L93,28l-3.5,6.79.26.17c11.7,8,25.62,1.88,25.78,1.82,14.29-7.11,18.86-5.26,27.13-1.9,2.25.91,4.8,2,7.86,2.92a29.92,29.92,0,0,0,9.08,1.44A27.88,27.88,0,0,0,163.5,39v-.72a28.63,28.63,0,0,1-12.73-1.14c-3-1-5.57-2-7.81-2.89-4.1-1.68-7.4-3-11.51-3s-8.95,1.31-16.2,4.93c-.14.06-13.49,5.91-24.8-1.59L93.33,29a27.9,27.9,0,0,0,11,2.21,28.22,28.22,0,0,0,9.51-1.65c1.28-.47,2.52-.95,3.69-1.4,9.21-3.52,15.86-6.07,34,1.29a26.7,26.7,0,0,0,12,1.45v-.73A25.93,25.93,0,0,1,151.79,28.78Z"/><path d="M158.88,46.16a.28.28,0,0,0-.13,0,.35.35,0,0,0-.23.32.44.44,0,0,0,0,.16l5,13v-2L159.22,46.4A.39.39,0,0,0,158.88,46.16Z"/><path d="M145.43,38.85a30.41,30.41,0,0,0-12.71-3c-6,0-10.65,2.11-14.44,3.83l-1.24.56C111.12,42.86,99.7,42,99.58,42s-.37.12-.39.33a.36.36,0,0,0,.34.38c.48,0,11.71.88,17.81-1.82.4-.17.8-.36,1.24-.56,6-2.71,14.23-6.44,26.56-.84,6.9,3.15,11.89,3.93,15.14,3.93a15.65,15.65,0,0,0,3.22-.3v-.75C161.16,42.88,155.24,43.32,145.43,38.85Z"/><path d="M26.4,25.21,32.13,6.29a.36.36,0,0,0-.24-.45l-.1,0a.4.4,0,0,0-.36.27L25.64,25.21Z"/><path d="M79.85,25.8l.34.25.13,0a.37.37,0,0,0,.21-.46l-6.37-18a.38.38,0,0,0-.35-.24l-.13,0a.37.37,0,0,0-.22.47Z"/><path d="M68.13,28.15l.37-.26a1,1,0,0,1,.45-.1,1.1,1.1,0,0,1,.43.08l.31.25.66-.54-.27-.28-.35-.19L69.38,27,69,27a2.49,2.49,0,0,0-.87.15,2.1,2.1,0,0,0-.66.41,1.93,1.93,0,0,0-.45.66,2.34,2.34,0,0,0,0,1.7,1.72,1.72,0,0,0,.45.65,1.7,1.7,0,0,0,.66.42,2.74,2.74,0,0,0,.87.14,2.25,2.25,0,0,0,.79-.15,1.67,1.67,0,0,0,.62-.53l-.72-.54-.34.31a1,1,0,0,1-.48.12.84.84,0,0,1-.43-.11L68.13,30l-.24-.41a1.36,1.36,0,0,1-.09-.51,1.44,1.44,0,0,1,.09-.51A1.57,1.57,0,0,1,68.13,28.15Z"/><path d="M81.2,21.42l.34.23.12,0a.36.36,0,0,0,.22-.46L76.77,7.76a.36.36,0,0,0-.34-.23l-.14,0a.35.35,0,0,0-.2.46Z"/><path d="M79.93,11.81l.32.2.17,0a.36.36,0,0,0,.16-.48l-2-3.9a.35.35,0,0,0-.32-.2.58.58,0,0,0-.18,0,.36.36,0,0,0-.15.48Z"/><path d="M82.65,35.78l8.08,4,.15,0,.33-.2a.39.39,0,0,0,0-.18.38.38,0,0,0-.21-.31l-7.47-3.74,5.26-14a.58.58,0,0,0,0-.14.36.36,0,0,0-.24-.32.32.32,0,0,0-.14,0,.35.35,0,0,0-.33.23L82.78,35.47Z"/><path d="M61.34,3.58a.38.38,0,0,0-.34-.3h-.07a.36.36,0,0,0-.31.4l.82,5.06V4.25Z"/><path d="M73.09,25.21h.75L68.64,6.38a.39.39,0,0,0-.37-.27h-.08a.36.36,0,0,0-.25.45Z"/><path d="M81.89,41.67l.36.25.11,0a.37.37,0,0,0,.23-.46L71.39,7.22A.37.37,0,0,0,71,7a.22.22,0,0,0-.11,0,.35.35,0,0,0-.24.44Z"/><path d="M30.46,25.27h.74a19.16,19.16,0,0,1,18.69-15,19,19,0,0,1,11.55,3.9v-.9c-.38-.28-.78-.54-1.19-.79L59,3a.36.36,0,0,0-.4-.32.37.37,0,0,0-.31.42l1.19,9c-.67-.35-1.33-.68-2-1l-.93-9.28a.33.33,0,0,0-.4-.33.38.38,0,0,0-.32.4l.91,8.92A15.45,15.45,0,0,0,55,10.22L54.4,1.14A.34.34,0,0,0,54,.8a.35.35,0,0,0-.34.38L54.3,10c-.61-.14-1.21-.24-1.83-.32l-.34-9a.36.36,0,0,0-.37-.34.37.37,0,0,0-.36.37l.34,8.88a15.48,15.48,0,0,0-1.68-.09V.46a.36.36,0,0,0-.35-.37.38.38,0,0,0-.37.37V9.55a17.73,17.73,0,0,0-1.8.13l.26-9A.36.36,0,0,0,47.46.3h0a.36.36,0,0,0-.35.36l-.27,9.11c-.54.09-1.06.19-1.59.33l.53-8.7A.37.37,0,0,0,45.42,1a.35.35,0,0,0-.39.34l-.53,8.93c-.52.14-1,.31-1.56.51l.9-9.1a.38.38,0,0,0-.33-.4.36.36,0,0,0-.38.33l-.93,9.47a16.43,16.43,0,0,0-2.06,1l1.28-9.7a.36.36,0,1,0-.71-.1L39.35,12.57a18.89,18.89,0,0,0-2,1.47L39,3.77a.36.36,0,0,0-.29-.42.38.38,0,0,0-.42.29L36.44,14.78a19.41,19.41,0,0,0-2.39,2.66l2.7-12.59A.36.36,0,1,0,36,4.7L33,19A19.94,19.94,0,0,0,30.46,25.27Z"/><path d="M61.44,40.49V39.22A15,15,0,0,1,54.7,45a3.52,3.52,0,0,1,.55.54A15.53,15.53,0,0,0,61.44,40.49Z"/><path d="M51.22,27a2.16,2.16,0,0,0-.56.08,1.66,1.66,0,0,0-.48.24,1.36,1.36,0,0,0-.34.41,1.18,1.18,0,0,0-.12.55.87.87,0,0,0,.14.53l.34.32a2.44,2.44,0,0,0,.44.19c.16.05.31.09.45.15l.34.17.14.28-.06.19-.14.12-.18.08-.22,0-.42-.11L50.21,30l-.62.67a1.68,1.68,0,0,0,.62.38,2,2,0,0,0,.71.11A1.89,1.89,0,0,0,51.5,31a1.19,1.19,0,0,0,.48-.23,1.89,1.89,0,0,0,.34-.4,1.49,1.49,0,0,0,.12-.57,1,1,0,0,0-.14-.56L52,29a1.85,1.85,0,0,0-.43-.18l-.44-.14-.34-.16-.14-.27.07-.19.14-.12.2-.08.18,0,.34.07.3.2.58-.65a1.37,1.37,0,0,0-.55-.33A2.27,2.27,0,0,0,51.22,27Z"/><path d="M153.45,94.86a.85.85,0,0,0-.78.48,1.19,1.19,0,0,0-.07.4,6,6,0,0,0,1,2.51c-3.26-2.68-7.81-6.22-8.72-6a.61.61,0,0,0-.42.36,1,1,0,0,0-.08.44c0,1.24,1.1,3.81,1.83,5.39-1-.39-2.06-.82-3.19-1.29l-1.52-.61a30.82,30.82,0,0,0-14.45-.84,23.41,23.41,0,0,0-3.65.85l-1.28.51-.31.13,0,0c-.85.34-1.66.66-2.42,1l-.78.32c.75-1.55,2-4.19,2-5.48a1.38,1.38,0,0,0-.08-.44.6.6,0,0,0-.4-.36c-1-.25-5.48,3.28-8.74,6a5.76,5.76,0,0,0,1-2.51,1,1,0,0,0-.08-.4.81.81,0,0,0-.77-.48h-.08A10,10,0,0,0,108.16,96c-2.08,1-4.88,2.26-7.3,2.12,1.24-.65,2.91-1.68,2.94-2.69v-.09c-.06-.82-1.11-1.1-1.47-1.19l-.12,0c-.06,0-5.28.54-7.4-1.36a6.75,6.75,0,0,0,4.8-1.41,6,6,0,0,0,1.75-4.73c0-.3,0-.6,0-.93a7.15,7.15,0,0,0-7.41-6.32h-.34c-5.65.17-7.07,5.91-7.43,8.35a5.69,5.69,0,0,0,0,.7,9.89,9.89,0,0,0,.09,1.24c.31,2.7,3.79,10.69,12.25,12.43a33.5,33.5,0,0,0,6.83.84c4.62,0,8.15-1.47,14.41-4.07l2.74-1.13a26.47,26.47,0,0,1,4.86-1.34A29.72,29.72,0,0,1,142.83,98h.2l3.67,1.48.4.16c5.31,2.09,8.94,3.2,13.26,3.2a29,29,0,0,0,3.14-.19v-.73c-5.8.65-9.76-.45-16.27-3a22.21,22.21,0,0,1-2.12-5.74.53.53,0,0,1,0-.14c1,.17,5.88,4,10.21,7.58h.48l0-.48c-1.3-1.64-2.56-3.67-2.53-4.35a.45.45,0,0,1,0-.11l.2,0a9.93,9.93,0,0,1,3,1.11c2,.91,4.56,2.12,7,2.18v-.74c-2.28-.07-4.77-1.21-6.7-2.11A9,9,0,0,0,153.45,94.86Zm-48.21,7.38a32,32,0,0,1-6.65-.81A15.43,15.43,0,0,1,86.91,89.61a7.85,7.85,0,0,1-.09-1.11,4.49,4.49,0,0,1,0-.62c.33-2.27,1.63-7.58,6.73-7.73h.31a6.33,6.33,0,0,1,6.68,5.64c0,.36,0,.71,0,1a5.28,5.28,0,0,1-1.5,4C97.23,92.57,94.09,92,94,92l-.36.16v.38c1.7,2.93,7.78,2.45,8.54,2.38.54.14.86.35.88.53,0,.57-1.83,1.78-3.59,2.55l-.22.36.28.32c3,.81,6.39-.8,8.91-2a9.9,9.9,0,0,1,3-1.11l.19,0a.45.45,0,0,0,0,.11c0,.68-1.22,2.71-2.52,4.35l0,.48h.48C114,97,118.88,93.19,119.84,93a.3.3,0,0,1,0,.14c0,.84-1.1,3.53-2.26,5.85C112.52,101.08,109.31,102.24,105.24,102.24Z"/><path d="M55.19,12.73a2.52,2.52,0,0,1-.59.52,14.86,14.86,0,0,1,6.84,5.8V17.78A15.46,15.46,0,0,0,55.19,12.73Z"/><path d="M52.05,14.3c1.07,2.25,2,6.05,2.26,11h.51a33.28,33.28,0,0,0-2.24-11.11C52.41,14.21,52.24,14.26,52.05,14.3Z"/><path d="M53.69,13.78C56.14,16,58,20.18,58.6,25.27h.72c-.63-5.15-2.49-9.47-5-11.85A5.75,5.75,0,0,1,53.69,13.78Z"/><path d="M90,55.36A8.53,8.53,0,0,0,92.2,48a3.87,3.87,0,0,0-1.78-2.83,3.8,3.8,0,0,0-1.84-.44,5.65,5.65,0,0,0-1.92.35,3.36,3.36,0,0,0-1.73,3.85,2.43,2.43,0,0,0,2,1.89,1.87,1.87,0,0,0,1.75-2,.37.37,0,0,0-.36-.38.37.37,0,0,0-.37.36c0,.14,0,1.35-1,1.35-.46,0-1.1-.55-1.35-1.4a2.61,2.61,0,0,1,1.37-3,4.27,4.27,0,0,1,3.07.1,3.2,3.2,0,0,1,1.43,2.33,7.92,7.92,0,0,1-2,6.79s-1.87,2.62-7.34,2.25a.38.38,0,0,0-.39.34.36.36,0,0,0,.34.38l1.14,0C88.24,57.88,90,55.41,90,55.36Z"/><path d="M27.35,59.11a.36.36,0,1,0-.56-.45c-.2.23-5,5.89-15.89-.73l-.15-.11a11.87,11.87,0,0,1-4.34-9.37,6.7,6.7,0,0,1,2.12-4.29,5,5,0,0,1,4-.76,4.55,4.55,0,0,1,3.88,5.43s-.77,3.31-3.21,3.31A3.56,3.56,0,0,1,10.76,51a3,3,0,0,1-.29-2.6c.2-.29.74-.91,1.31-.91.39,0,.78.29,1.13.86a.37.37,0,0,0,.51.11.37.37,0,0,0,.11-.51,2.15,2.15,0,0,0-1.75-1.19c-1.11,0-1.92,1.24-2,1.3l0,.09a3.72,3.72,0,0,0,.38,3.28,4.39,4.39,0,0,0,3.05,1.47c3,0,3.92-3.71,4-3.91a5.36,5.36,0,0,0-4.47-6.28,7.66,7.66,0,0,0-1.39-.13,5,5,0,0,0-3.21,1,7.27,7.27,0,0,0-2.41,4.83,12.57,12.57,0,0,0,4.62,10l.22.16c4.15,2.54,7.47,3.28,10,3.28a10.66,10.66,0,0,0,2.74-.34A8,8,0,0,0,27.35,59.11Z"/><path d="M2,27.71a20.46,20.46,0,0,1-2,.4v.71c.71-.1,1.39-.23,2-.38Z"/><path d="M155.74,97.29a.37.37,0,0,0-.52-.05.35.35,0,0,0-.12.25.37.37,0,0,0,.08.26,8.1,8.1,0,0,0,4.14,2.38,10.64,10.64,0,0,0,2.73.34,12.52,12.52,0,0,0,1.45-.09v-.7C158.3,100.3,155.88,97.46,155.74,97.29Z"/><path d="M10.42,39.64l.16,0,7.67-3.78.29-.15-5.63-14.3a.37.37,0,0,0-.34-.22l-.12,0a.37.37,0,0,0-.2.48l5.38,13.66L10.25,39a.36.36,0,0,0-.15.49Z"/><path d="M60.61,58.55,59.09,58a30.92,30.92,0,0,0-14.45-.85A24.16,24.16,0,0,0,41,58l-1.27.52-.33.11,0,0-2.4,1-.79.33c.87-1.77,2.29-5,1.88-5.91a.67.67,0,0,0-.41-.38c-1-.24-5.47,3.29-8.74,6,.68-1.1,1.24-2.27,1-2.89a.84.84,0,0,0-.77-.48H29a9.64,9.64,0,0,0-3.28,1.17c-2.09,1-4.89,2.26-7.3,2.11,1.28-.67,3-1.75,2.94-2.77-.06-.82-1.11-1.1-1.47-1.19l-.12,0c-.08,0-5.28.53-7.4-1.37a6.66,6.66,0,0,0,4.8-1.41c1.34-1.21,1.91-3.11,1.7-5.66a7.14,7.14,0,0,0-7.38-6.31h-.37c-5.65.15-7.07,5.89-7.43,8.35a7,7,0,0,0,.05,1.92C4.05,53.77,7.51,61.75,16,63.51a33.31,33.31,0,0,0,6.82.82c4.63,0,8.16-1.45,14.42-4.06L40,59.14a29.59,29.59,0,0,1,4.86-1.35,30,30,0,0,1,15.56,1.55h.2l.85.34v-.79ZM22.79,63.6a32.82,32.82,0,0,1-6.66-.8A15.48,15.48,0,0,1,4.45,51a6,6,0,0,1,0-1.74C4.74,47,6,41.66,11.13,41.5h.31a6.36,6.36,0,0,1,6.7,5.66c.2,2.31-.29,4-1.45,5.05-1.91,1.73-5.06,1.14-5.09,1.14l-.37.14,0,.39c1.72,2.92,7.8,2.46,8.56,2.38.54.15.85.34.86.53.05.58-1.81,1.79-3.57,2.55l-.22.37.26.32c3,.81,6.41-.8,8.92-2A10.5,10.5,0,0,1,29,57l.2,0c.23.5-1.12,2.71-2.51,4.44l0,.5h.5c4.31-3.65,9.23-7.41,10.19-7.59.16.62-1,3.52-2.24,6C30.07,62.44,26.87,63.6,22.79,63.6Z"/><path d="M36,56a.33.33,0,0,0-.21-.07.41.41,0,0,0-.3.14,31.62,31.62,0,0,1-3.14,3.76.38.38,0,0,0-.2.48l.34.23.14,0c.51-.2,2.37-2.6,3.44-4A.37.37,0,0,0,36,56Z"/><path d="M155.74,21.51a.37.37,0,0,0-.52,0,.36.36,0,0,0,0,.51,8.1,8.1,0,0,0,4.14,2.38,10.64,10.64,0,0,0,2.73.34c.45,0,.94,0,1.45-.09v-.7C158.3,24.53,155.88,21.69,155.74,21.51Z"/><path d="M101.54,65.26a.37.37,0,0,0,.23.33h.13l.34-.24,6.53-19.06a.41.41,0,0,0,0-.11.37.37,0,0,0-.25-.36l-.11,0a.37.37,0,0,0-.35.25l-6.51,19.06A.36.36,0,0,0,101.54,65.26Z"/><path d="M99.19,80.47a.37.37,0,0,0,.25.36h.12l.34-.25.13-.35v0l1.16-2.83a.32.32,0,0,0,0-.14.28.28,0,0,0-.14-.26l10.45-31.48a.41.41,0,0,0,0-.11.34.34,0,0,0-.26-.34l-.12,0a.36.36,0,0,0-.33.25L99.21,80.36A.22.22,0,0,0,99.19,80.47Z"/><path d="M99.78,61.53l.14,0,.32-.24,6-15.16a.58.58,0,0,0,0-.14.39.39,0,0,0-.23-.34l-.12,0a.39.39,0,0,0-.35.24l-6,15.16a.35.35,0,0,0,0,.14A.33.33,0,0,0,99.78,61.53Z"/><path d="M93.6,58.29a.28.28,0,0,0-.13,0,.37.37,0,0,0-.22.46l5.4,13.68-7.38,3.63a.36.36,0,0,0-.17.48l.32.2.17,0L99.27,73l.29-.14L93.93,58.52A.38.38,0,0,0,93.6,58.29Z"/><path d="M118.18,94.56a.4.4,0,0,0-.29.14,31.45,31.45,0,0,1-3.14,3.78.37.37,0,0,0-.23.32.58.58,0,0,0,0,.14l.34.23H115c.51-.22,2.37-2.6,3.44-4a.4.4,0,0,0,.07-.2.38.38,0,0,0-.14-.31A.35.35,0,0,0,118.18,94.56Z"/><path d="M101.2,50.33l.13,0,.34-.21,1.56-3.84a.58.58,0,0,0,0-.14.33.33,0,0,0-.23-.32.28.28,0,0,0-.15,0,.39.39,0,0,0-.33.22L101,49.87a.7.7,0,0,0,0,.14A.33.33,0,0,0,101.2,50.33Z"/><path d="M10.59,54.84a7.9,7.9,0,0,1-2-6.75A3.16,3.16,0,0,1,10,45.76a4.18,4.18,0,0,1,3-.11c1.33.75,1.9,1.78,1.63,2.84-.24.88-1,1.57-1.55,1.57-1,0-1-1.21-1-1.35a.37.37,0,0,0-.37-.36.36.36,0,0,0-.35.38,1.87,1.87,0,0,0,1.76,2,2.73,2.73,0,0,0,2.24-2.09c.19-.67.34-2.34-2-3.68a5.59,5.59,0,0,0-1.84-.32,3.73,3.73,0,0,0-1.85.44A3.9,3.9,0,0,0,7.88,48,8.47,8.47,0,0,0,10,55.3c.07.11,1.8,2.58,6.85,2.58l1.14,0a.38.38,0,0,0,.34-.38.35.35,0,0,0-.4-.34C12.54,57.5,10.65,54.91,10.59,54.84Z"/><path d="M109.79,97.75a.35.35,0,0,0-.05-.51.36.36,0,0,0-.51.05c-.2.24-5,5.89-15.89-.73l-.14-.09a11.91,11.91,0,0,1-4.34-9.38A6.68,6.68,0,0,1,91,82.79,5,5,0,0,1,95,82,4.58,4.58,0,0,1,99,86.64a6.26,6.26,0,0,1-.06.84s-.78,3.29-3.22,3.29a3.58,3.58,0,0,1-2.48-1.16,2.44,2.44,0,0,1-.44-1.47A4.34,4.34,0,0,1,92.91,87c.2-.29.76-.91,1.31-.91.39,0,.78.28,1.13.85a.37.37,0,0,0,.51.11.32.32,0,0,0,.17-.29.31.31,0,0,0-.06-.2,2.17,2.17,0,0,0-1.75-1.2,2.75,2.75,0,0,0-1.94,1.29l0,.11a4.84,4.84,0,0,0-.19,1.4,3.13,3.13,0,0,0,.58,1.88,4.3,4.3,0,0,0,3,1.45c3,0,3.92-3.71,4-3.9s.06-.66.08-1c0-4.6-4.52-5.31-4.55-5.31a7.68,7.68,0,0,0-1.4-.13,5.11,5.11,0,0,0-3.2,1,7.36,7.36,0,0,0-2.41,4.84,12.61,12.61,0,0,0,4.63,10l.21.14c4.15,2.54,7.47,3.29,10,3.29a10.74,10.74,0,0,0,2.75-.34A8.12,8.12,0,0,0,109.79,97.75Z"/><path d="M115.81,32.28a2.3,2.3,0,0,0,0-.26,1.08,1.08,0,0,0-.11-.48,1.15,1.15,0,0,0-.84-.7l-.2,0a2.09,2.09,0,0,0-.34,0,2.9,2.9,0,0,0-.55.17l-1.44.63L114,35.42l.89-.39-.65-1.48.31-.14L116,34.54l1-.45-1.68-1.19A1.3,1.3,0,0,0,115.81,32.28Zm-1,.14-.19.15-.22.13-.43.18-.39-.88.5-.2.21-.08.22,0,.2.06.16.21,0,.26Z"/><path d="M87.33,43a5.54,5.54,0,0,0-3.49,1.83A5.28,5.28,0,0,0,82.92,49c0,.17.89,3.88,4,3.88a4.37,4.37,0,0,0,3-1.5,3.72,3.72,0,0,0,.45-3.23l-.11-.47-.13.08a2.22,2.22,0,0,0-1.67-1.14,2.39,2.39,0,0,0-1.84,1.31.36.36,0,0,0,.11.5.38.38,0,0,0,.51-.1c.43-.65.85-1,1.22-1,.53,0,1,.66,1.15,1l.07.1a3,3,0,0,1-.34,2.56,3.66,3.66,0,0,1-2.41,1.2c-2.46,0-3.22-3.28-3.22-3.28a4.5,4.5,0,0,1,.78-3.6,4.7,4.7,0,0,1,3-1.56,5.09,5.09,0,0,1,4.13.74,6.39,6.39,0,0,1,2.11,4,12,12,0,0,1-4.41,9.45c-10.92,6.71-15.77,1-16,.79a.36.36,0,0,0-.51-.06.36.36,0,0,0,0,.51,8,8,0,0,0,4.14,2.39,11.09,11.09,0,0,0,2.71.33c2.51,0,5.86-.76,10.07-3.34a12.59,12.59,0,0,0,4.73-10.11A7,7,0,0,0,92,43.87a5.24,5.24,0,0,0-3.26-1A7.79,7.79,0,0,0,87.33,43Z"/><path d="M93,93.47a7.93,7.93,0,0,1-2.12-5.3A7.44,7.44,0,0,1,91,86.72a3.16,3.16,0,0,1,1.42-2.32A3.85,3.85,0,0,1,95,84.15a3.7,3.7,0,0,1,.48.13,2.78,2.78,0,0,1,1.69,2.35,2.14,2.14,0,0,1-1.61,2.06c-1,0-1-1.2-1-1.34a.36.36,0,0,0-.37-.35.34.34,0,0,0-.35.35,1.88,1.88,0,0,0,1.76,2.06,2.72,2.72,0,0,0,2.24-2.1,2.31,2.31,0,0,0,.1-.67c0-.8-.34-2-2.11-3A5.61,5.61,0,0,0,94,83.32a3.84,3.84,0,0,0-1.87.45,3.79,3.79,0,0,0-1.78,2.83,6.69,6.69,0,0,0-.14,1.57,8.45,8.45,0,0,0,2.29,5.76c.07.12,1.82,2.6,6.85,2.6.37,0,.74,0,1.15,0a.37.37,0,0,0,.34-.35v0a.36.36,0,0,0-.39-.34C95,96.14,93.1,93.56,93,93.47Z"/><path d="M48.26,90.22A33.24,33.24,0,0,0,46,101.34h.53c.3-4.93,1.17-8.73,2.24-11C48.6,90.32,48.43,90.26,48.26,90.22Z"/><path d="M47.18,14.16a33.28,33.28,0,0,0-2.24,11.11h.52c.31-4.92,1.18-8.72,2.25-11C47.52,14.26,47.35,14.21,47.18,14.16Z"/><path d="M88.64,40.77a7.19,7.19,0,0,0-7.43,6.32c-.21,2.55.36,4.45,1.71,5.66a6.66,6.66,0,0,0,4.79,1.41c-2.12,1.9-7.33,1.37-7.39,1.37h-.1c-.41.08-1.68.3-1.77,1.15-.13,1,1.79,2.15,3.18,2.83-2.43.14-5.18-1.15-7.27-2.11A9,9,0,0,0,71,56.23a.84.84,0,0,0-.77.48c-.28.62.28,1.79,1,2.89-3.27-2.67-7.81-6.2-8.74-6a.63.63,0,0,0-.4.38c-.42.91.91,4,1.74,5.83l-2.35-1v.79l2.82,1.13a.38.38,0,0,0,.4.17c5.31,2.07,8.94,3.2,13.26,3.2a34.53,34.53,0,0,0,7.22-.87c7.88-1.64,10.34-8.54,11-11.43a8.39,8.39,0,0,0,.08-3.56C95.71,45.57,94,40.93,89,40.79Zm6.9,7.69a7.29,7.29,0,0,1-.08,3.25C94.66,55.13,92.2,61.12,85,62.6c-8.18,1.72-12.33.74-20.21-2.36-1.19-2.46-2.27-5.28-2.1-5.88,1,.18,5.86,3.94,10.2,7.59h.49l0-.5C72,59.71,70.66,57.5,70.9,57l.18,0a10.29,10.29,0,0,1,3,1.09c2.52,1.18,6,2.79,8.93,2l.26-.34L83,59.34c-1.87-.79-3.93-2-3.86-2.59,0-.1.26-.34,1.14-.49.68.08,6.84.57,8.57-2.38v-.39l-.37-.14a8.09,8.09,0,0,1-1.28.1,5.68,5.68,0,0,1-3.81-1.24c-1.17-1-1.66-2.74-1.46-5.05a6.41,6.41,0,0,1,7-5.66C93.51,41.64,95,45.93,95.54,48.46Z"/><path d="M17.34,22.91h.12l.34-.22,6-15.17A.35.35,0,0,0,23.42,7a.34.34,0,0,0-.33.22L17.14,22.43A.37.37,0,0,0,17.34,22.91Z"/><path d="M18.88,11.74l.34-.24,1.57-3.82a.4.4,0,0,0-.2-.48.36.36,0,0,0-.14,0,.35.35,0,0,0-.34.22l-1.57,3.82a.39.39,0,0,0,.2.48Z"/><path d="M108.84,63.84l5.73-18.9a.45.45,0,0,0,0-.11.34.34,0,0,0-.24-.34.23.23,0,0,0-.11,0,.38.38,0,0,0-.36.25l-5.78,19.12Z"/><path d="M67.79,59.85a31.63,31.63,0,0,1-3.16-3.78.41.41,0,0,0-.3-.14.35.35,0,0,0-.27.58c1.06,1.4,2.92,3.8,3.43,4l.14,0,.34-.23A.34.34,0,0,0,67.79,59.85Z"/><path d="M150.23,98.48a30,30,0,0,1-3.16-3.78.33.33,0,0,0-.27-.14.35.35,0,0,0-.22.08.37.37,0,0,0-.16.31.34.34,0,0,0,.08.2c1.07,1.41,2.92,3.79,3.43,4h.14l.34-.21a.34.34,0,0,0-.18-.48Z"/><path d="M146.33,24.87a32.05,32.05,0,0,0-13.53-3,29.21,29.21,0,0,0-9.57,1.49l-.26.13c-.47.29-9.67,4.36-17.47,4.95a20.59,20.59,0,0,1-13.89-3.81l-.36-.31L86.37,34.63l-.1.22.16.18c.18.22,4.61,5.2,15.89,5.81,8.68.44,11.91-.93,16-2.68,1.32-.56,2.68-1.15,4.35-1.73,7.32-2.57,13-2.63,18.57-.21,6.26,2.76,11.37,4.71,20.15,4.71a20.59,20.59,0,0,0,2.09-.11l0-.72c-.68.06-1.34.12-2.05.12-8.64,0-13.69-1.94-19.86-4.66a21.2,21.2,0,0,0-8.65-1.84,31.69,31.69,0,0,0-10.46,2c-1.68.6-3.06,1.17-4.38,1.74-4.19,1.78-7.2,3.08-15.7,2.62C92.57,39.6,88,35.59,87.14,34.72l4.38-9.23a20.8,20.8,0,0,0,12.25,3.75c.58,0,1.18,0,1.79-.07,7.91-.59,17.32-4.75,17.78-5l.17-.08A31,31,0,0,1,146,25.52c7.37,3.42,13,3.95,17.48,3.3v-.71C159.15,28.78,153.65,28.27,146.33,24.87Z"/><path d="M122.91,30.72a1,1,0,0,1-.45.26A1,1,0,0,1,122,31a.88.88,0,0,1-.43-.14l-.34-.31a1.58,1.58,0,0,1-.25-.46,1.78,1.78,0,0,1-.06-.51,1,1,0,0,1,.12-.45l.28-.36a1.18,1.18,0,0,1,.43-.23,1.2,1.2,0,0,1,.47,0,.86.86,0,0,1,.43.15l.45-.83a1.74,1.74,0,0,0-.79-.24h-.14a2.27,2.27,0,0,0-.73.11,2.45,2.45,0,0,0-.79.4,1.86,1.86,0,0,0-.54.62,2,2,0,0,0-.26.79.82.82,0,0,0,0,.22,2.89,2.89,0,0,0,.13.69,2.38,2.38,0,0,0,.41.79,2.1,2.1,0,0,0,.65.51,2,2,0,0,0,.81.24h.11a2.7,2.7,0,0,0,.77-.13,1.87,1.87,0,0,0,.82-.45,1.78,1.78,0,0,0,.5-.66l-.86-.42Z"/><path d="M56.28,88.78a3.91,3.91,0,0,1-.59.54,14.27,14.27,0,0,1,5.75,4.3v-1.1A15.09,15.09,0,0,0,56.28,88.78Z"/><path class="a" d="M2.92,104l-.69.2"/><path d="M6.38,58.5A.34.34,0,0,0,6.17,58l-.12,0a.38.38,0,0,0-.35.24L2.92,65.68v2.06Z"/><path d="M145.43,114.63a30.28,30.28,0,0,0-12.71-3c-6,0-10.65,2.11-14.44,3.83L117,116c-5.92,2.62-17.34,1.77-17.46,1.77a.35.35,0,0,0-.39.32v0a.38.38,0,0,0,.34.36c.48,0,11.71.88,17.81-1.81l1.24-.56c6-2.72,14.23-6.45,26.56-.85,6.9,3.16,11.89,3.93,15.14,3.93a15.53,15.53,0,0,0,3.22-.31v-.75C161.16,118.65,155.24,119.09,145.43,114.63Z"/><path d="M2,104.16H0v.43a20.52,20.52,0,0,0,2-.38Z"/><path d="M61.44,0H60.12c.44.15.87.28,1.32.45Z"/><path d="M93,17.69a7.89,7.89,0,0,1-2.12-5.29A7.44,7.44,0,0,1,91,11a3.12,3.12,0,0,1,1.42-2.32,4.22,4.22,0,0,1,3-.13,2.78,2.78,0,0,1,1.69,2.35,2.14,2.14,0,0,1-.06.5,2,2,0,0,1-1.55,1.56c-1,0-1-1.19-1-1.33a.37.37,0,0,0-.37-.36.35.35,0,0,0-.35.36,1.89,1.89,0,0,0,1.76,2.06,2.72,2.72,0,0,0,2.24-2.11,2.24,2.24,0,0,0,.1-.66c0-.81-.34-2-2.11-3A5.61,5.61,0,0,0,94,7.54,3.81,3.81,0,0,0,92.11,8a3.81,3.81,0,0,0-1.78,2.83,6.81,6.81,0,0,0-.14,1.58,8.51,8.51,0,0,0,2.29,5.76c.07.12,1.82,2.59,6.85,2.59.37,0,.74,0,1.15,0a.38.38,0,0,0,.34-.36v0a.36.36,0,0,0-.39-.34C95,20.37,93.1,17.78,93,17.69Z"/><path d="M1.23,4.77h.11a.35.35,0,0,0,.23-.45L.16,0H0V1.85L.88,4.53Z"/><path d="M2,115.63q-1,.18-2,.27v.73c.69-.06,1.37-.15,2-.26Z"/><path d="M24.07,2.83A27.79,27.79,0,0,0,37,.07L37.15,0H35.29C31.74,1.46,28.52,2.43,21,2a30.12,30.12,0,0,1-9.71-2H9.45A29.38,29.38,0,0,0,21,2.75C22.08,2.81,23.11,2.83,24.07,2.83Z"/><path d="M9.52,1.76l.33-.2a.38.38,0,0,0-.17-.5L7.55,0H5.93L9.35,1.71Z"/><path d="M162.86,108.25h-.16a1.67,1.67,0,0,0-.58.12,1.64,1.64,0,0,0-.49.26,1.41,1.41,0,0,0-.33.44,1.36,1.36,0,0,0-.09.51v.07a1.24,1.24,0,0,0,.13.47l.27.31.36.2.39.12.37.08.28.11.17.12.07.2,0,.2-.1.16-.17.09-.22,0a.9.9,0,0,1-.5-.08,1.12,1.12,0,0,1-.43-.27l-.59.71a1.7,1.7,0,0,0,.73.38,1.93,1.93,0,0,0,.63.1,1,1,0,0,0,.24,0,2.42,2.42,0,0,0,.57-.12,1.25,1.25,0,0,0,.12-.08v-2.23l-.18-.07-.45-.11-.27-.08-.2-.08-.14-.11-.06-.17,0-.2.14-.14.17-.07.2,0,.41.06.35.21v-1l-.09,0A2.18,2.18,0,0,0,162.86,108.25Z"/><path d="M2.44,109.52l.34.24.39.09H4.25l.21.08.13.17,0,.22-.08.17-.14.14-.2.09a.89.89,0,0,1-.49,0,1,1,0,0,1-.48-.16l-.39.85a1.61,1.61,0,0,0,.79.17,2.6,2.6,0,0,0,.87-.14,3.1,3.1,0,0,0,.51-.27,1.48,1.48,0,0,0,.38-.42,1.1,1.1,0,0,0,.19-.51v-.16a1.45,1.45,0,0,0-.09-.48.93.93,0,0,0-.3-.43l-.4-.22a1.82,1.82,0,0,0-.46-.06h-1l-.16-.08-.11-.14v-.2l.08-.17.15-.13.19-.09.4,0,.4.12.36-.85a2.15,2.15,0,0,0-.73-.13,1.94,1.94,0,0,0-.7.13,3.6,3.6,0,0,0-.52.26,2.23,2.23,0,0,0-.41.4,1.31,1.31,0,0,0-.2.5.66.66,0,0,0,0,.14,1.34,1.34,0,0,0,.09.46A.89.89,0,0,0,2.44,109.52Z"/><path d="M1.71,118.13a.32.32,0,0,0,0-.14.34.34,0,0,0-.48-.17,6.84,6.84,0,0,1-1.2.34v.75a7.12,7.12,0,0,0,1.49-.44A.39.39,0,0,0,1.71,118.13Z"/><path d="M30.29,0h-3.7a28.86,28.86,0,0,1-8.26,0H15a26.46,26.46,0,0,0,7.33,1A32.7,32.7,0,0,0,30.29,0Z"/><path d="M151.43,151.22h.24l-.1-.48C151.53,150.9,151.47,151.06,151.43,151.22Z"/><path d="M2,105.68q-1,.18-2,.27v.73q1-.09,2-.27Z"/><path d="M2,113.7c-.65.14-1.34.25-2,.35v.73c.7-.09,1.39-.2,2-.34Z"/><path d="M.61,108.64a1.66,1.66,0,0,0-.61-.3v1l0,0Z"/><path d="M.71,111.71a1.17,1.17,0,0,0,.09-.45c0-.07,0-.11,0-.17a1,1,0,0,0-.15-.51l-.34-.33L0,110.13v2.27a1.5,1.5,0,0,0,.4-.25A1.25,1.25,0,0,0,.71,111.71Z"/><path d="M153.49,123.45h-.11a.35.35,0,0,0-.23.47l8.92,27.29h.77l-9-27.52A.36.36,0,0,0,153.49,123.45Z"/><path d="M158.88,124a.31.31,0,0,0-.13,0,.36.36,0,0,0-.21.46l5,13v-2.05l-4.28-11.23A.39.39,0,0,0,158.88,124Z"/><path d="M2,25.84c-.71.12-1.38.21-2,.28v.73c.66-.07,1.33-.16,2-.28Z"/><path d="M122.91,106.51a1.16,1.16,0,0,1-.45.26,1.36,1.36,0,0,1-.48,0,1,1,0,0,1-.43-.14l-.34-.31a1.32,1.32,0,0,1-.25-.47,1.78,1.78,0,0,1-.06-.51,1,1,0,0,1,.12-.45l.28-.35a.94.94,0,0,1,.43-.23,1,1,0,0,1,.47,0,.87.87,0,0,1,.43.16l.45-.84a1.62,1.62,0,0,0-.79-.23h-.14a2.28,2.28,0,0,0-.73.12,2.67,2.67,0,0,0-.79.4,1.77,1.77,0,0,0-.54.62,2,2,0,0,0-.26.79.78.78,0,0,0,0,.21,2.87,2.87,0,0,0,.13.7,2.2,2.2,0,0,0,.41.79,2.29,2.29,0,0,0,.65.52,2.16,2.16,0,0,0,.81.22H122a2.54,2.54,0,0,0,1.56-.56,2,2,0,0,0,.5-.68l-.86-.41Z"/><path d="M2,22.79v-.53l0-.05a17.92,17.92,0,0,1-2-1v.85l.61.32c-.2,0-.4,0-.61,0v.71a6.41,6.41,0,0,0,2-.19Z"/><path d="M1.91,11.86s.05.2.13.45V9.22A6.34,6.34,0,0,0,1.91,11.86Z"/><path d="M82.39,147.67l-.43-.18c-.16-.05-.31-.08-.45-.11l-.27-.08-.21-.07-.13-.11-.06-.17,0-.2.13-.14.18-.08.2-.05.41.07.35.23.57-.71a1.64,1.64,0,0,0-.66-.33,2,2,0,0,0-.54-.07h-.19a2.15,2.15,0,0,0-.55.11,1.3,1.3,0,0,0-.5.28,1,1,0,0,0-.32.43,1.25,1.25,0,0,0-.1.59,1.19,1.19,0,0,0,.13.46l.26.31.36.2.4.11.37.09.28.1.17.13.07.19,0,.22-.1.15-.17.09-.22,0a1.25,1.25,0,0,1-.5-.08,1.15,1.15,0,0,1-.43-.28l-.59.71a1.66,1.66,0,0,0,.73.39,2.4,2.4,0,0,0,.65.07h.2a2.38,2.38,0,0,0,.59-.12,1.92,1.92,0,0,0,.48-.29,1.29,1.29,0,0,0,.31-.47,1.35,1.35,0,0,0,.07-.62.89.89,0,0,0-.15-.49Z"/><path d="M162.3,142.29l.34.23h.12A.38.38,0,0,0,163,142l-6.38-18a.38.38,0,0,0-.35-.24l-.11,0a.36.36,0,0,0-.23.46Z"/><path d="M162.39,128.29l.31.2.17,0a.36.36,0,0,0,.15-.5l-2-3.89a.37.37,0,0,0-.32-.2.32.32,0,0,0-.16,0,.36.36,0,0,0-.17.48Z"/><path d="M34.45,145.48a1.14,1.14,0,0,0-.08-.74,1.09,1.09,0,0,0-.36-.48,1.11,1.11,0,0,0-.48-.22l-.23,0a1.63,1.63,0,0,0-.31,0c-.18,0-.37.1-.55.17l-1.44.64,1.64,3.76.89-.39-.65-1.48.31-.14,1.46,1.13,1.07-.47L34,146.1A1.23,1.23,0,0,0,34.45,145.48Zm-1,.14-.19.15-.22.13-.43.18-.39-.88.48-.2.24-.08.21,0,.2.06.16.2,0,.25Z"/><path d="M41.55,143.91a.9.9,0,0,1-.45.27,1,1,0,0,1-.48.06,1,1,0,0,1-.43-.14l-.36-.31a2.2,2.2,0,0,1-.23-.46,1.28,1.28,0,0,1-.06-.51,1,1,0,0,1,.12-.45l.28-.36a1,1,0,0,1,.42-.23,1.1,1.1,0,0,1,.48-.06.85.85,0,0,1,.43.17l.43-.84a1.58,1.58,0,0,0-.77-.23h-.15a2.21,2.21,0,0,0-.72.11,2.56,2.56,0,0,0-.79.4,2.16,2.16,0,0,0-.55.62,2.09,2.09,0,0,0-.25.79,2.52,2.52,0,0,0,.53,1.7,1.89,1.89,0,0,0,.65.51,1.94,1.94,0,0,0,.78.22h.19a2.3,2.3,0,0,0,.71-.12,2,2,0,0,0,.82-.45,1.87,1.87,0,0,0,.5-.66l-.85-.42Z"/><path d="M87.29,146.65l-.4-.21a1.48,1.48,0,0,0-.46-.08l-.47,0h-.27l-.22,0-.16-.08-.1-.14,0-.21.08-.16.15-.14.17-.08.42,0,.4.12.36-.85a1.69,1.69,0,0,0-.63-.13H86a2.08,2.08,0,0,0-.71.12,3.07,3.07,0,0,0-.51.26,1.65,1.65,0,0,0-.4.39,1.24,1.24,0,0,0-.2.51,1,1,0,0,0,.07.61,1,1,0,0,0,.25.4l.33.23.4.09h.79l.29,0,.22.08.12.17,0,.21-.07.17-.13.13-.21.1a1,1,0,0,1-.49,0,1.28,1.28,0,0,1-.5-.15l-.37.85a2,2,0,0,0,.79.17,2.18,2.18,0,0,0,.85-.16,1.5,1.5,0,0,0,.53-.28,1.35,1.35,0,0,0,.39-.4,1.24,1.24,0,0,0,.18-.52,1.38,1.38,0,0,0-.09-.62A1,1,0,0,0,87.29,146.65Z"/><path d="M.52,138.13l.12,0a.39.39,0,0,0,.22-.48L0,135.38v2l.18.48Z"/><path d="M7.47,134.57a.35.35,0,0,0-.22-.46.31.31,0,0,0-.13,0,.36.36,0,0,0-.33.23L2,147v2.32l3.76,1.89H7.43L2.21,148.6Z"/><path d="M8.64,21.34a12.53,12.53,0,0,0,4.74-10.1A7.05,7.05,0,0,0,11,6.74a5.17,5.17,0,0,0-3.24-1,8.13,8.13,0,0,0-1.43.14A5.39,5.39,0,0,0,2.83,7.67,4.3,4.3,0,0,0,2,9.22v3.09c.32,1,1.36,3.42,3.83,3.42a4.35,4.35,0,0,0,3-1.5A3.8,3.8,0,0,0,9.29,11l-.11-.45-.13.07A2.23,2.23,0,0,0,7.37,9.46c-.63,0-1.25.45-1.82,1.32a.37.37,0,0,0,.09.51.38.38,0,0,0,.51-.11c.43-.65.85-1,1.22-1,.53,0,1,.66,1.15.94l.08.13a3,3,0,0,1-.34,2.53A3.62,3.62,0,0,1,5.84,15c-2.46,0-3.22-3.26-3.22-3.26A4.49,4.49,0,0,1,3.4,8.13a4.83,4.83,0,0,1,3-1.58,5.19,5.19,0,0,1,4.14.76,6.39,6.39,0,0,1,2.1,4,12,12,0,0,1-4.41,9.45A23.21,23.21,0,0,1,2,23.52v.73A23.55,23.55,0,0,0,8.64,21.34Z"/><path d="M2,23.52a15.77,15.77,0,0,1-2,.39v.71a15.54,15.54,0,0,0,2-.37Z"/><path d="M153.45,19.08a.87.87,0,0,0-.78.48,1.21,1.21,0,0,0-.07.41,5.94,5.94,0,0,0,1,2.5c-3.26-2.67-7.81-6.22-8.72-5.95a.59.59,0,0,0-.42.35,1.1,1.1,0,0,0-.08.45c0,1.24,1.1,3.81,1.83,5.38l-3.19-1.28-1.52-.62A31.21,31.21,0,0,0,127.08,20a26.61,26.61,0,0,0-3.65.85l-1.28.53-.31.11,0,0-2.42,1-.78.34c.75-1.57,2-4.21,2-5.48a1.51,1.51,0,0,0-.08-.45.58.58,0,0,0-.4-.35c-1-.25-5.48,3.28-8.74,5.94a5.61,5.61,0,0,0,1-2.49,1,1,0,0,0-.08-.41.82.82,0,0,0-.77-.48h-.08a10.09,10.09,0,0,0-3.28,1.18c-2.08,1-4.88,2.26-7.3,2.1,1.24-.63,2.91-1.68,2.94-2.67v-.1c-.06-.82-1.11-1.09-1.47-1.19h-.12c-.06,0-5.28.54-7.4-1.36a6.75,6.75,0,0,0,4.8-1.41,6,6,0,0,0,1.75-4.74c0-.29,0-.6,0-.92A7.14,7.14,0,0,0,93.9,3.64h-.34c-5.65.17-7.07,5.9-7.43,8.36a5.53,5.53,0,0,0,0,.69,9.62,9.62,0,0,0,.09,1.23c.31,2.7,3.79,10.69,12.25,12.45a33.32,33.32,0,0,0,6.83.82c4.62,0,8.15-1.45,14.41-4.05.87-.36,1.78-.75,2.74-1.13a26.53,26.53,0,0,1,4.86-1.35,29.72,29.72,0,0,1,15.56,1.53h.2l3.67,1.49.4.15C152.41,25.91,156,27,160.36,27a29,29,0,0,0,3.14-.19v-.73c-5.8.65-9.76-.46-16.27-3a22.61,22.61,0,0,1-2.12-5.74.53.53,0,0,1,0-.14c1,.17,5.88,3.93,10.21,7.58l.48,0,0-.48c-1.3-1.64-2.56-3.66-2.53-4.34a.45.45,0,0,1,0-.11l.2-.05a9.74,9.74,0,0,1,3,1.12c2,.91,4.56,2.09,7,2.15v-.71c-2.28-.08-4.77-1.21-6.7-2.11A9.06,9.06,0,0,0,153.45,19.08Zm-48.21,7.39a32,32,0,0,1-6.65-.81A15.43,15.43,0,0,1,86.91,13.84a8.33,8.33,0,0,1-.09-1.11,4.3,4.3,0,0,1,0-.62c.33-2.28,1.63-7.58,6.73-7.74h.31A6.33,6.33,0,0,1,100.58,10c0,.35,0,.71,0,1a5.32,5.32,0,0,1-1.5,4c-1.9,1.71-5,1.13-5.09,1.13l-.36.14v.4c1.7,2.92,7.78,2.44,8.54,2.37.54.15.86.35.88.54,0,.57-1.83,1.78-3.59,2.55l-.22.35.28.33c3,.8,6.39-.8,8.91-2a9.71,9.71,0,0,1,3-1.12l.19.05a.45.45,0,0,0,0,.11c0,.68-1.22,2.7-2.52,4.34l0,.48.48,0c4.33-3.64,9.23-7.41,10.19-7.58a.3.3,0,0,1,0,.14c0,.83-1.1,3.52-2.26,5.84C112.52,25.3,109.31,26.47,105.24,26.47Z"/><path d="M2,19.16v-.73a20,20,0,0,1-2,0v.73A20,20,0,0,0,2,19.16Z"/><path d="M115.81,108.05a2.3,2.3,0,0,0,0-.26,1,1,0,0,0-.11-.46,1.06,1.06,0,0,0-.36-.5,1,1,0,0,0-.48-.21h-.21a1.83,1.83,0,0,0-.33,0,3.86,3.86,0,0,0-.55.17l-1.44.64,1.64,3.75.89-.38-.65-1.49.31-.14,1.47,1.15,1-.47-1.68-1.19A1.17,1.17,0,0,0,115.81,108.05Zm-1,.14-.19.16-.22.12-.43.19-.39-.87.5-.21.21-.08.22,0,.2.06.16.2,0,.26Z"/><path d="M.88,11.05c0-.32,0-.68,0-1A7.14,7.14,0,0,1,2,7.08V5.92A7.87,7.87,0,0,0,.21,10c0,.4,0,.79,0,1.14A5.89,5.89,0,0,0,1.9,15.62l.14.12v-1A5.53,5.53,0,0,1,.88,11.05Z"/><path d="M1.09,20h0a.36.36,0,0,0-.36.34.37.37,0,0,0,.32.39c.35,0,.69,0,1,0h.14c5,0,6.77-2.47,6.8-2.53a8.52,8.52,0,0,0,2.2-7.4A3.83,3.83,0,0,0,9.4,8a3.74,3.74,0,0,0-1.85-.45,5.44,5.44,0,0,0-1.89.34,3.42,3.42,0,0,0-1.75,3.86,2.45,2.45,0,0,0,2,1.9c1.38,0,1.75-1.35,1.75-2.06a.36.36,0,0,0-.36-.36.37.37,0,0,0-.37.36c0,.14,0,1.33-1,1.33-.45,0-1.1-.53-1.35-1.38A2.59,2.59,0,0,1,6,8.53a4.18,4.18,0,0,1,3.08.1A3.12,3.12,0,0,1,10.47,11a7.92,7.92,0,0,1-2,6.8S6.77,20.07,2,20C1.73,20,1.42,20,1.09,20Z"/><path d="M2,37.93c-.65.14-1.34.25-2,.35V39c.7-.1,1.39-.21,2-.34Z"/><path d="M2,101.61c-.71.12-1.38.21-2,.28v.73c.66-.07,1.33-.16,2-.27Z"/><path d="M2.15,37.9H0v.38c.7-.1,1.39-.21,2-.35Z"/><path d="M35.67,2.16C29.76,4.77,18.34,3.92,18.22,3.92a.36.36,0,0,0-.39.33.36.36,0,0,0,.33.38c.19,0,2,.16,4.58.16,3.94,0,9.53-.33,13.22-2,.42-.18.82-.37,1.26-.55A56.92,56.92,0,0,1,42.75,0H40.63c-1.32.52-2.57,1.08-3.72,1.6Z"/><path d="M2,29.9c-.7.13-1.38.21-2,.28v.73c.66-.07,1.34-.15,2-.27Z"/><path d="M.61,32.87A1.68,1.68,0,0,0,0,32.56v1l0,0Z"/><path d="M.71,35.92a1.24,1.24,0,0,0,.07-.62,1,1,0,0,0-.15-.5l-.34-.32L0,34.35v2.27a1.77,1.77,0,0,0,.4-.24A1.25,1.25,0,0,0,.71,35.92Z"/><path d="M2.44,33.75l.34.23.39.09.41,0,.37,0,.3,0,.21.08.13.17,0,.21-.08.17-.14.14-.2.1a1.13,1.13,0,0,1-.49,0,.94.94,0,0,1-.48-.15l-.39.85a1.86,1.86,0,0,0,.79.17,2.39,2.39,0,0,0,.87-.16A1.79,1.79,0,0,0,5,35.44,1.14,1.14,0,0,0,5.39,35a1,1,0,0,0,.19-.52,1.42,1.42,0,0,0-.09-.62.88.88,0,0,0-.3-.43l-.4-.22a1.48,1.48,0,0,0-.46-.08l-.47,0H3.58l-.21,0-.16-.08L3.1,33v-.22l.08-.16.15-.13.19-.08.4,0,.4.13.36-.86A2,2,0,0,0,4,31.46H3.94a2.18,2.18,0,0,0-.7.12,2.86,2.86,0,0,0-.52.27,1.56,1.56,0,0,0-.41.4,1.33,1.33,0,0,0-.2.49,1.22,1.22,0,0,0,.08.61A.89.89,0,0,0,2.44,33.75Z"/><polygon points="2.92 67.74 2.92 65.68 2.04 68.05 2.04 70.11 2.92 67.74"/><path d="M1.23,80.56l.11,0a.35.35,0,0,0,.25-.34.22.22,0,0,0,0-.11L0,75.28v2.35l.88,2.69Z"/><path d="M2,98.57V98l0,0a16.31,16.31,0,0,1-2-1v.85l.61.31c-.2,0-.4,0-.61,0v.74a6.45,6.45,0,0,0,2-.22Z"/><path d="M2,39.86c-.67.11-1.35.2-2,.26v.72c.69-.06,1.37-.15,2-.26Z"/><path d="M1.68,42.21A.36.36,0,0,0,1.2,42a6.23,6.23,0,0,1-1.2.35v.75a6.18,6.18,0,0,0,1.49-.45A.36.36,0,0,0,1.68,42.21Z"/><path d="M0,97.84v.3c.21,0,.41,0,.61,0Z"/><path d="M99.19,4.7a.35.35,0,0,0,.25.35l.12,0,.34-.25.13-.36h0l1.16-2.83a.39.39,0,0,0,0-.14.38.38,0,0,0-.12-.28l.4-1.2h-.78L99.21,4.59A.22.22,0,0,0,99.19,4.7Z"/><path d="M92.18,1.35l.33.21.17-.05L95.75,0H94.1L92.35.86A.39.39,0,0,0,92.18,1.35Z"/><path d="M2,94.94v-.73a17.12,17.12,0,0,1-2,0v.73A19.59,19.59,0,0,0,2,94.94Z"/><path d="M2,95.79v.74h.14l.74,0v-.74A8.42,8.42,0,0,1,2,95.79Z"/><path d="M2.83,83.44A4.14,4.14,0,0,0,2,85v3.09a6.71,6.71,0,0,0,.88,1.78V88.38a5.92,5.92,0,0,1-.3-.87,6.63,6.63,0,0,1-.07-1.07,4.36,4.36,0,0,1,.37-1.74V83.34Z"/><path d="M1.84,86.69a7.57,7.57,0,0,0,.07.94s.05.2.13.45V85A5.47,5.47,0,0,0,1.84,86.69Z"/><path d="M2.92,99.78V99L2,99.3V100Z"/><path d="M1.09,95.76h0a.36.36,0,0,0-.36.35v0a.36.36,0,0,0,.32.35c.35,0,.69,0,1,0v-.74Z"/><path d="M2,103.48a20.44,20.44,0,0,1-2,.41v.27H2Z"/><path d="M2,99.3a14.14,14.14,0,0,1-2,.38v.71A15.43,15.43,0,0,0,2,100Z"/><path d="M117.31,144a1.73,1.73,0,0,0-.67-.42,2.48,2.48,0,0,0-1.7,0,1.73,1.73,0,0,0-.67.42,1.57,1.57,0,0,0-.44.65,2.34,2.34,0,0,0,0,1.7,1.78,1.78,0,0,0,.44.67,2,2,0,0,0,.67.4,2.48,2.48,0,0,0,1.7,0,2,2,0,0,0,.67-.4,1.93,1.93,0,0,0,.45-.67,2.48,2.48,0,0,0,0-1.7A1.69,1.69,0,0,0,117.31,144Zm-.37,2-.25.4-.39.27a1.36,1.36,0,0,1-.51.09,1.22,1.22,0,0,1-.49-.09l-.39-.27-.25-.4a1.36,1.36,0,0,1-.09-.51,1.44,1.44,0,0,1,.09-.51,1,1,0,0,1,.25-.4l.39-.27a1.22,1.22,0,0,1,.49-.09,1.36,1.36,0,0,1,.51.09l.39.27a2,2,0,0,1,.25.4,2.09,2.09,0,0,1,.07.51A2,2,0,0,1,116.94,146.05Z"/><path d="M5.87,91.5a4.26,4.26,0,0,0,3-1.5,3.28,3.28,0,0,0,.61-2.07,5,5,0,0,0-.16-1.16l-.11-.45-.13.08a2.19,2.19,0,0,0-1.68-1.16c-.63,0-1.25.44-1.82,1.33a.28.28,0,0,0-.06.2.32.32,0,0,0,.15.29A.37.37,0,0,0,6.15,87c.43-.65.85-1,1.22-1,.53,0,1,.67,1.15,1L8.6,87a4.39,4.39,0,0,1,.12.93,2.53,2.53,0,0,1-.46,1.61,3.59,3.59,0,0,1-2.42,1.2c-1.63,0-2.51-1.42-2.92-2.39v1.48A3.55,3.55,0,0,0,5.87,91.5Z"/><path d="M109.79,22a.4.4,0,0,0,.09-.24.33.33,0,0,0-.14-.27.35.35,0,0,0-.51,0c-.2.25-5,5.9-15.89-.72l-.14-.11a11.83,11.83,0,0,1-4.34-9.36A6.64,6.64,0,0,1,91,7a5,5,0,0,1,4-.76A4.55,4.55,0,0,1,99,10.85a6.18,6.18,0,0,1-.06.85S98.12,15,95.68,15a3.63,3.63,0,0,1-2.48-1.16,2.46,2.46,0,0,1-.44-1.47,4.43,4.43,0,0,1,.15-1.15c.2-.27.76-.89,1.31-.89.39,0,.78.28,1.13.85a.38.38,0,0,0,.51.11A.36.36,0,0,0,96,11a.3.3,0,0,0-.06-.2A2.15,2.15,0,0,0,94.22,9.6c-1.11,0-1.91,1.24-1.94,1.28l0,.11A4.86,4.86,0,0,0,92,12.4a3.07,3.07,0,0,0,.58,1.86,4.31,4.31,0,0,0,3,1.47c3,0,3.92-3.72,4-3.9,0-.34.06-.67.08-1,0-4.59-4.52-5.3-4.55-5.3a7.72,7.72,0,0,0-1.4-.14,5.11,5.11,0,0,0-3.2,1,7.37,7.37,0,0,0-2.41,4.85,12.63,12.63,0,0,0,4.63,10l.21.13c4.15,2.54,7.47,3.3,10,3.3a11.71,11.71,0,0,0,2.75-.34A8.2,8.2,0,0,0,109.79,22Z"/><path d="M162.67,18.4c-.42.07-1.69.3-1.78,1.15v.09c0,.86,1.37,1.77,2.61,2.44v-.84c-1.1-.63-1.94-1.28-1.9-1.61,0-.11.28-.34,1.14-.51l.76.05v-.73c-.44,0-.71-.05-.73-.05Z"/><path d="M.88,86.83c0-.33,0-.68,0-1A7.17,7.17,0,0,1,2,82.86V81.7a7.89,7.89,0,0,0-1.83,4c0,.4,0,.79,0,1.15A5.87,5.87,0,0,0,1.9,91.39l.14.12v-1A5.49,5.49,0,0,1,.88,86.83Z"/><path d="M2.92,96.51C7.39,96.28,9,94.05,9,94a8.55,8.55,0,0,0,2.34-5.82,8,8,0,0,0-.14-1.57A3.81,3.81,0,0,0,9.4,83.77a3.75,3.75,0,0,0-1.86-.45,5.36,5.36,0,0,0-1.88.34,3.65,3.65,0,0,0-1.88,3,2.79,2.79,0,0,0,.13.8,2.45,2.45,0,0,0,2,1.9A1.88,1.88,0,0,0,7.7,87.35.35.35,0,0,0,7.34,87a.36.36,0,0,0-.37.35c0,.14,0,1.34-1,1.34-.45,0-1.1-.53-1.35-1.38a3.08,3.08,0,0,1-.09-.71A2.72,2.72,0,0,1,6,84.31a4.21,4.21,0,0,1,3.08.09,3.16,3.16,0,0,1,1.42,2.32,8.35,8.35,0,0,1,.14,1.45,8.12,8.12,0,0,1-2.17,5.36s-1.46,2-5.52,2.24Z"/><path d="M8.64,97.12A12.54,12.54,0,0,0,13.38,87,7.06,7.06,0,0,0,11,82.51a5.26,5.26,0,0,0-3.26-1,7.83,7.83,0,0,0-1.41.14,5.49,5.49,0,0,0-3.39,1.72V84.7a3.34,3.34,0,0,1,.48-.79,4.72,4.72,0,0,1,3-1.58,5.12,5.12,0,0,1,4.14.76,6.35,6.35,0,0,1,2.1,4,11.93,11.93,0,0,1-4.41,9.45A24,24,0,0,1,2.92,99v.76A25.14,25.14,0,0,0,8.64,97.12Z"/><path d="M100.65,148.87,95,134.57a.37.37,0,0,0-.34-.22l-.12,0a.36.36,0,0,0-.2.48l5.38,13.66-5.49,2.71h1.64l4.47-2.2Z"/><path d="M134.4,145.43a1.5,1.5,0,0,0-.43-.18l-.43-.14-.35-.16-.12-.28.05-.18.15-.13.19-.06.18,0,.34.06.3.2.59-.65a1.61,1.61,0,0,0-.56-.31,2,2,0,0,0-.64-.1,1.84,1.84,0,0,0-.57.09,1.34,1.34,0,0,0-.48.23,1.11,1.11,0,0,0-.32.4,1,1,0,0,0-.13.56.85.85,0,0,0,.13.53l.34.32a3.07,3.07,0,0,0,.45.2l.45.14.34.17.13.28-.06.19-.14.14-.18.06-.22,0-.42-.09-.34-.28-.62.68a2,2,0,0,0,.62.37,2,2,0,0,0,.71.12,2.71,2.71,0,0,0,.58-.07,1.82,1.82,0,0,0,.48-.25,1.34,1.34,0,0,0,.34-.4,1.5,1.5,0,0,0,.12-.58,1,1,0,0,0-.14-.55Z"/><path d="M141.77,141.76c-.64-5.16-2.48-9.48-5-11.86a3.58,3.58,0,0,1-.65.35c2.45,2.2,4.27,6.41,4.91,11.51Z"/><path d="M29.93,82.47a.22.22,0,0,0-.11,0,.36.36,0,0,0-.34.25L17.85,117.79a.37.37,0,0,0,.23.46h.12l.34-.24.13-.36h0l1.16-2.84a.35.35,0,0,0-.11-.41L30.16,82.93A.36.36,0,0,0,29.93,82.47Z"/><path d="M134.49,130.78c1.07,2.26,1.95,6.05,2.26,11h.53A32.73,32.73,0,0,0,135,130.64,4.1,4.1,0,0,1,134.49,130.78Z"/><path d="M111.29,122.89l-.1,0a.38.38,0,0,0-.35.25l-9.31,28.1h.77l9.24-27.87A.37.37,0,0,0,111.29,122.89Z"/><path d="M.52,60.28H.64a.39.39,0,0,0,.24-.33.36.36,0,0,0,0-.14L0,57.54v2l.18.47Z"/><path d="M83.33,118h.11a.35.35,0,0,0,.23-.45L72.47,83.27a.37.37,0,0,0-.35-.25L72,83a.36.36,0,0,0-.23.46L83,117.72Z"/><path d="M59.9,149.42c.52.23,1,.46,1.54.67v-.78l-1.25-.55a21.18,21.18,0,0,0-8.66-1.84,31.77,31.77,0,0,0-10.45,2c-1.68.61-3.06,1.18-4.37,1.75l-1.26.53h1.86c1.22-.52,2.49-1.06,4-1.6C48.65,147.06,54.37,147,59.9,149.42Z"/><path d="M81.28,102.1l.12,0a.36.36,0,0,0,.22-.46l-6.38-18a.36.36,0,0,0-.34-.23h-.12a.37.37,0,0,0-.23.47l6.39,18Z"/><path d="M127.38,141.76h.52c.31-4.93,1.18-8.72,2.25-11a4.1,4.1,0,0,1-.53-.14A33.29,33.29,0,0,0,127.38,141.76Z"/><path d="M18.42,99l.14,0,.32-.23,6-15.16a.36.36,0,0,0-.2-.48.3.3,0,0,0-.13,0,.35.35,0,0,0-.34.22l-6,15.17A.35.35,0,0,0,18.42,99Z"/><path d="M51.38,149.05h0a28.4,28.4,0,0,0-10.58,2.17h2.13a26,26,0,0,1,17,0h1.5V151A28.9,28.9,0,0,0,51.38,149.05Z"/><path d="M155.53,141.69h.75l-5.2-18.83a.37.37,0,0,0-.35-.26h-.1a.37.37,0,0,0-.25.45Z"/><path d="M152.5,141.69h.74l-4.85-19.39A.4.4,0,0,0,148,122l-.09,0a.36.36,0,0,0-.27.43Z"/><path d="M111.91,141.69l4.93-19.56a.36.36,0,0,0-.26-.45h-.1a.34.34,0,0,0-.33.28l-5,19.74Z"/><path d="M112.9,141.76h.74a19.13,19.13,0,0,1,37.36,0h.76a20,20,0,0,0-2.66-6.51l-3-14.28a.35.35,0,1,0-.69.14l2.63,12.66a20.36,20.36,0,0,0-2.48-2.68l-1.78-11a.37.37,0,0,0-.42-.29.35.35,0,0,0-.3.41l1.65,10.2a18.86,18.86,0,0,0-2-1.43l-1.25-9.51a.34.34,0,0,0-.4-.31.35.35,0,0,0-.31.4l1.17,9a19.27,19.27,0,0,0-2-1l-.94-9.27a.34.34,0,0,0-.41-.33.35.35,0,0,0-.31.39l.9,8.91c-.54-.2-1.1-.37-1.67-.52l-.63-9.08a.35.35,0,0,0-.39-.35.37.37,0,0,0-.34.39l.62,8.85a16.29,16.29,0,0,0-1.83-.32l-.34-9a.36.36,0,0,0-.37-.34.37.37,0,0,0-.36.37l.35,8.88a15.76,15.76,0,0,0-1.68-.09v-9.09a.34.34,0,0,0-.35-.35.35.35,0,0,0-.36.35V126c-.61,0-1.21,0-1.8.12l.27-9a.38.38,0,0,0-.36-.37.36.36,0,0,0-.37.36l-.26,9.11c-.55.09-1.06.18-1.58.31l.51-8.68a.37.37,0,0,0-.34-.39.37.37,0,0,0-.39.34l-.52,8.93c-.53.14-1,.32-1.57.51l.9-9.1a.36.36,0,0,0-.32-.4.38.38,0,0,0-.39.32l-.93,9.47a19.71,19.71,0,0,0-2.06,1l1.29-9.68a.37.37,0,0,0-.31-.42.39.39,0,0,0-.41.33l-1.36,10.24a21.1,21.1,0,0,0-2,1.47l1.7-10.27a.35.35,0,0,0-.29-.42.38.38,0,0,0-.42.31l-1.86,11.14a18.15,18.15,0,0,0-2.39,2.64l2.7-12.59a.38.38,0,0,0-.27-.43.39.39,0,0,0-.44.27L115.4,135.5A19.8,19.8,0,0,0,112.9,141.76Z"/><path d="M108.84,141.69l5.73-18.91a.35.35,0,0,0-.23-.45h-.11a.38.38,0,0,0-.36.25l-5.78,19.12Z"/><path d="M101.77,143.42l.13,0,.34-.25,6.53-19.06a.37.37,0,0,0-.24-.46l-.11,0a.38.38,0,0,0-.35.24L101.56,143A.35.35,0,0,0,101.77,143.42Z"/><path d="M118.18,18.79a.4.4,0,0,0-.29.14,31,31,0,0,1-3.14,3.77.39.39,0,0,0-.23.33.7.7,0,0,0,0,.14l.34.23.14,0c.51-.2,2.37-2.6,3.44-4a.35.35,0,0,0,.07-.2.33.33,0,0,0-.14-.29A.35.35,0,0,0,118.18,18.79Z"/><path d="M162.3,64.44l.34.23h.12a.36.36,0,0,0,.23-.33.57.57,0,0,0,0-.13l-6.38-18a.37.37,0,0,0-.35-.25l-.11,0a.38.38,0,0,0-.25.36.23.23,0,0,0,0,.11Z"/><path d="M81.34,88.07l.17,0a.37.37,0,0,0,.15-.5l-2-3.9a.36.36,0,0,0-.33-.19.32.32,0,0,0-.16,0A.36.36,0,0,0,79,84l2,3.9Z"/><path d="M137.65,129.2a4,4,0,0,1-.6.54c4.64,1.86,8.21,6.39,9.36,12h.74A17.06,17.06,0,0,0,137.65,129.2Z"/><path d="M83,97.21l-5.1-13.38a.39.39,0,0,0-.35-.24.25.25,0,0,0-.12,0,.35.35,0,0,0-.21.47l5.1,13.39.34.23h.13A.4.4,0,0,0,83,97.21Z"/><path d="M151.84,146.7a1,1,0,0,1-.48.11,1.08,1.08,0,0,1-.44-.09l-.35-.27-.23-.4a1.19,1.19,0,0,1-.08-.51,1.24,1.24,0,0,1,.08-.51,1.33,1.33,0,0,1,.24-.4l.36-.27a1.13,1.13,0,0,1,.45-.09,1.1,1.1,0,0,1,.43.08l.31.25.67-.55-.28-.27-.34-.17-.36-.11-.34,0a2.52,2.52,0,0,0-.85.15,1.77,1.77,0,0,0-.68.42,1.55,1.55,0,0,0-.43.65,2.34,2.34,0,0,0,0,1.7,1.75,1.75,0,0,0,.43.67,2,2,0,0,0,.68.4,2.11,2.11,0,0,0,.85.15,2,2,0,0,0,.79-.17,1.46,1.46,0,0,0,.62-.51l-.71-.54Z"/><path d="M99.78,139.38l.14,0,.32-.23,6-15.16a.37.37,0,0,0-.2-.48l-.13,0a.37.37,0,0,0-.34.22l-6,15.18A.35.35,0,0,0,99.78,139.38Z"/><path d="M162.39,50.46l.31.18.17,0a.38.38,0,0,0,.2-.35s0-.1,0-.14l-2-3.9a.37.37,0,0,0-.32-.2.47.47,0,0,0-.16,0,.41.41,0,0,0-.21.31.41.41,0,0,0,0,.19Z"/><path d="M10.16,138.69a21.16,21.16,0,0,0,14,3.68c7.92-.59,17.33-4.75,17.79-5.05l.17-.07a30.73,30.73,0,0,1,19.29.18v-.75a32.15,32.15,0,0,0-10-1.59,29.21,29.21,0,0,0-9.57,1.49l-.28.13c-.44.29-9.66,4.34-17.45,4.95a20.6,20.6,0,0,1-13.89-3.81l-.35-.31L5,147.83l-.1.22.16.18a14.28,14.28,0,0,0,4.26,3h1.8a16.61,16.61,0,0,1-5.35-3.3Z"/><path d="M127.59,129.74a3,3,0,0,1-.58-.54,17,17,0,0,0-9.5,12.56h.74C119.38,136.13,123,131.6,127.59,129.74Z"/><path d="M101.2,128.18l.13,0,.34-.23,1.56-3.82a.37.37,0,0,0-.2-.48.35.35,0,0,0-.14,0,.38.38,0,0,0-.34.23L101,127.72A.35.35,0,0,0,101.2,128.18Z"/><path d="M20.42,103l.12,0,.34-.25,6.51-19.06a.34.34,0,0,0-.21-.46.25.25,0,0,0-.12,0,.37.37,0,0,0-.35.25L20.2,102.55A.34.34,0,0,0,20.42,103Z"/><path d="M69.64,101.34h.76a19.74,19.74,0,0,0-2.66-6.51l-3-14.28a.34.34,0,0,0-.41-.28.37.37,0,0,0-.3.42l2.65,12.65a20.92,20.92,0,0,0-2.48-2.67l-1.79-11a.39.39,0,0,0-.36-.3h0a.36.36,0,0,0-.31.42L63.36,90a17.8,17.8,0,0,0-1.92-1.35v.85A19.22,19.22,0,0,1,69.64,101.34Z"/><path d="M12,142.2a28.22,28.22,0,0,0,20.48.55c1.3-.46,2.54-.94,3.71-1.39,7.56-2.89,13.4-5.13,25.28-1.76v-.76a40,40,0,0,0-10.78-1.67c-5.59,0-9.81,1.62-14.76,3.51-1.17.45-2.4.93-3.68,1.39A27.21,27.21,0,0,1,12,141.39l-.32-.17L8.16,148l.27.18a23.17,23.17,0,0,0,6.38,3h3.08a22.9,22.9,0,0,1-8.8-3.45Z"/><path d="M61.34,148.11l.1,0v-.79c-4-1.64-7.29-2.93-11.35-2.93s-8.94,1.31-16.2,4.92A29.73,29.73,0,0,1,27,151.22h3.51A28.56,28.56,0,0,0,34.2,150C48.49,142.89,53.06,144.75,61.34,148.11Z"/><path d="M123.6,141.76c.64-5.1,2.48-9.32,4.91-11.51a5.71,5.71,0,0,1-.65-.35c-2.49,2.38-4.35,6.7-5,11.86Z"/><path d="M37.56,80.49a.36.36,0,0,0-.44.26L34.06,95.06a19.62,19.62,0,0,0-2.52,6.28h.74A19.12,19.12,0,0,1,61.44,89.45V88.6l-.1-.07L60.08,79a.33.33,0,0,0-.4-.31.34.34,0,0,0-.31.4l1.18,9a17.93,17.93,0,0,0-2-1l-.92-9.27a.33.33,0,0,0-.41-.32.37.37,0,0,0-.32.39l.91,8.91c-.54-.2-1.1-.37-1.67-.53l-.63-9.08a.35.35,0,0,0-.39-.34.37.37,0,0,0-.34.39l.62,8.85c-.61-.14-1.21-.25-1.83-.33l-.34-9a.36.36,0,0,0-.37-.34.36.36,0,0,0-.35.37l.34,8.88a15.81,15.81,0,0,0-1.69-.09l0-9.08a.36.36,0,0,0-.36-.36.37.37,0,0,0-.37.36v9.1a15.4,15.4,0,0,0-1.8.12l.27-9a.38.38,0,0,0-.36-.38h0a.36.36,0,0,0-.36.35l-.26,9.11c-.54.1-1.06.19-1.58.31l.51-8.68a.37.37,0,0,0-.73,0l-.52,8.92c-.53.14-1,.33-1.57.51l.9-9.09a.37.37,0,0,0-.32-.4.37.37,0,0,0-.39.34l-1,9.45c-.69.31-1.39.65-2,1l1.3-9.69a.36.36,0,0,0-.31-.41c-.23,0-.39.12-.4.32L40.43,88.62a23,23,0,0,0-2,1.47l1.7-10.25a.36.36,0,0,0-.29-.42.35.35,0,0,0-.42.29L37.53,90.85a18.24,18.24,0,0,0-2.4,2.65l2.71-12.6A.37.37,0,0,0,37.56,80.49Z"/><path d="M61.44,117.87v-1.12A14.52,14.52,0,0,1,55.78,121a3,3,0,0,1,.56.56A15,15,0,0,0,61.44,117.87Z"/><path d="M69.21,104.2l.37-.26a1.13,1.13,0,0,1,.45-.09.94.94,0,0,1,.43.09l.31.23.67-.54-.28-.28-.34-.17-.36-.11-.34,0a2.39,2.39,0,0,0-.86.16,1.92,1.92,0,0,0-.67.41,1.8,1.8,0,0,0-.45.65,2.57,2.57,0,0,0-.15.85,2.49,2.49,0,0,0,.15.86,1.93,1.93,0,0,0,.45.66,2.06,2.06,0,0,0,.67.4,2.2,2.2,0,0,0,.86.16,2,2,0,0,0,.79-.17,1.33,1.33,0,0,0,.62-.53l-.71-.52-.34.31a1.06,1.06,0,0,1-.48.1,1.08,1.08,0,0,1-.44-.09l-.35-.26-.23-.4a1.27,1.27,0,0,1-.1-.52,1.29,1.29,0,0,1,.1-.51A2,2,0,0,1,69.21,104.2Z"/><path d="M20,87.79l.34-.23,1.56-3.82a.39.39,0,0,0-.2-.48.35.35,0,0,0-.14,0,.38.38,0,0,0-.34.23l-1.56,3.83a.36.36,0,0,0,.2.47Z"/><polygon points="22.8 148.85 22.77 148.85 21.92 146.19 20.51 146.14 20.39 150.24 21.31 150.27 21.38 147.37 21.41 147.37 22.35 150.3 23.05 150.34 24.19 147.46 24.22 147.46 24.1 150.37 25.07 150.4 25.21 146.3 23.77 146.25 22.8 148.85"/><polygon points="28.51 148.97 28.32 148.14 29.98 147.75 29.79 146.98 28.14 147.37 27.96 146.61 29.71 146.2 29.53 145.38 26.84 146 27.77 150.01 30.57 149.36 30.36 148.54 28.51 148.97"/><path d="M16.79,145.12l-2.93,3.34,1,.34.54-.66,1.51.51.05.87,1,.34-.31-4.43Zm-.85,2.35,1-1.16,0,1.49Z"/><polygon points="60.05 145.29 61.16 145.68 61.44 145.44 61.44 144.21 60.05 145.29"/><polygon points="35.31 142.83 36.94 146.59 37.87 146.19 36.23 142.43 35.31 142.83"/><polygon points="59.85 141.76 60.05 140.96 57.36 140.29 56.4 144.29 59.17 144.97 59.39 144.15 57.53 143.7 57.73 142.86 59.39 143.28 59.57 142.49 57.92 142.09 58.1 141.35 59.85 141.76"/><path d="M44.53,140l-1.09,4.31,1.06-.15.19-.85,1.56-.24.45.75,1.08-.16-2.29-3.8Zm.31,2.49.31-1.49.71,1.33Z"/><polygon points="51.63 142.26 51.62 142.26 50 139.55 48.87 139.54 48.82 143.65 49.78 143.67 49.78 140.97 49.81 140.97 51.43 143.68 52.55 143.68 52.59 139.58 51.63 139.57 51.63 142.26"/><path d="M45.59,121.58a2.91,2.91,0,0,1,.55-.56c-4.64-1.9-8.21-6.5-9.29-12.18H36.1C37.19,114.71,40.82,119.49,45.59,121.58Z"/><path d="M47,120.51c-2.41-2.28-4.21-6.53-4.8-11.67h-.72c.58,5.22,2.41,9.58,4.89,12A5.24,5.24,0,0,1,47,120.51Z"/><path d="M48.7,119.94a34,34,0,0,1-2.19-11.1H46a34.25,34.25,0,0,0,2.19,11.24A4.84,4.84,0,0,1,48.7,119.94Z"/><polygon points="50.54 119.72 50.97 119.7 51.06 119.7 51.06 108.84 50.54 108.84 50.54 119.72"/><path d="M55.94,108.84h-.53a33.22,33.22,0,0,1-2.18,11.1,4.25,4.25,0,0,1,.51.14A34.74,34.74,0,0,0,55.94,108.84Z"/><path d="M60.45,108.84h-.74c-.57,5.14-2.38,9.39-4.8,11.67a5.41,5.41,0,0,1,.64.37C58,118.42,59.87,114.06,60.45,108.84Z"/><path d="M20.57,122.84l.11,0a.37.37,0,0,0,.35-.25l4.18-13.83h-.76L20.32,122.4A.36.36,0,0,0,20.57,122.84Z"/><path d="M22.64,131h.1a.38.38,0,0,0,.35-.26l5.56-22h-.76l-5.51,21.78A.38.38,0,0,0,22.64,131Z"/><path d="M51,124.61a19.15,19.15,0,0,1-18.84-15.86H31.4v0h-.31l-4.73,22.08a.35.35,0,0,0,.26.43l.08,0a.36.36,0,0,0,.35-.3l4.57-21.18a19.9,19.9,0,0,0,1.9,5.06L31,129.82a.36.36,0,0,0,.29.42h.06a.36.36,0,0,0,.36-.31l2.34-14.05a20.27,20.27,0,0,0,2.32,3.05l-1.33,10a.35.35,0,0,0,.31.4h0a.36.36,0,0,0,.36-.31L37,119.6a20.55,20.55,0,0,0,2.85,2.33l-.64,6.56a.37.37,0,0,0,.33.4h0a.35.35,0,0,0,.35-.32l.61-6.19a19,19,0,0,0,2.84,1.45l-.48,8a.37.37,0,0,0,.34.39h0a.36.36,0,0,0,.37-.34l.45-7.77a18,18,0,0,0,2.63.76l-.2,6.27a.36.36,0,0,0,.36.37h0a.35.35,0,0,0,.36-.34l.2-6.14a19.79,19.79,0,0,0,2.91.29v6.11a.36.36,0,0,0,.35.37.38.38,0,0,0,.37-.37v-6.1a21.19,21.19,0,0,0,3.22-.27l.23,6a.38.38,0,0,0,.37.34h0a.34.34,0,0,0,.34-.37L55,124.92a19.94,19.94,0,0,0,3-.88l.62,8.69a.35.35,0,0,0,.35.34h0a.37.37,0,0,0,.34-.39l-.64-8.94a21,21,0,0,0,2.62-1.36l.07.77v-1.68A19,19,0,0,1,51,124.61Z"/><path d="M8.05,104.67l2.7,5.49A26,26,0,0,1,2,113.7v.74a25.6,25.6,0,0,0,9.39-3.88l.24-.18L8.4,103.72l-.31.14a27.68,27.68,0,0,1-6,1.82v.73A27.73,27.73,0,0,0,8.05,104.67Z"/><polygon points="30.32 105.73 30.3 105.73 29.48 103.15 28.68 103.15 27.86 105.67 27.84 105.67 27.22 103.15 26.28 103.15 27.44 107.08 28.18 107.08 29.05 104.36 29.06 104.36 29.93 107.08 30.7 107.08 31.85 103.15 30.97 103.15 30.32 105.73"/><path d="M40.42,104.34a1,1,0,0,0-.13-.57l-.3-.37a1.13,1.13,0,0,0-.48-.19,2.65,2.65,0,0,0-.58-.06H37.42v3.93h.86v-1.56h.44l.82,1.56h1l-1-1.66a.89.89,0,0,0,.63-.37A1.08,1.08,0,0,0,40.42,104.34Zm-1,.25-.19.12-.23.06h-.76v-.89h.58l.23,0,.21.06.16.12.06.25Z"/><polygon points="41.33 103.15 41.33 107.08 43.81 107.08 43.81 106.29 42.2 106.29 42.2 103.15 41.33 103.15"/><path d="M46,107.08a3.21,3.21,0,0,0,.84-.12,2,2,0,0,0,.71-.38A1.91,1.91,0,0,0,48,106a1.89,1.89,0,0,0,.19-.84,2.23,2.23,0,0,0-.19-.93,1.49,1.49,0,0,0-.51-.6,1.74,1.74,0,0,0-.74-.34,3.27,3.27,0,0,0-.9-.11h-1.3v3.93ZM45.42,104h.52a1.79,1.79,0,0,1,.51.07,1.28,1.28,0,0,1,.44.21l.29.34a1.36,1.36,0,0,1,.11.51,1.46,1.46,0,0,1-.11.56l-.31.37a1.17,1.17,0,0,1-.43.22,3.31,3.31,0,0,1-.56.06h-.46Z"/><polygon points="57.14 103.95 57.14 103.15 54.47 103.15 54.47 107.08 57.23 107.08 57.23 106.29 55.33 106.29 55.33 105.49 57.05 105.49 57.05 104.68 55.33 104.68 55.33 103.95 57.14 103.95"/><path d="M61.23,104.34a1.2,1.2,0,0,0-.13-.57l-.32-.37a1.14,1.14,0,0,0-.47-.19,2.62,2.62,0,0,0-.57-.06H58.21v3.93h.87v-1.56h.43l.82,1.56h1l-1-1.66a.93.93,0,0,0,.63-.37A1.2,1.2,0,0,0,61.23,104.34Zm-1,.25-.17.12-.25.06h-.75v-.89h.57l.23,0,.23.06.14.12.06.25Z"/><path d="M2,104.21l.19,0H2Z"/><path d="M9.43,101.31l0,0,4.67,9.55A34.4,34.4,0,0,1,2,115.63v.74a35.54,35.54,0,0,0,12.78-5.1l.24-.18L9.79,100.32l-.68.34a37.4,37.4,0,0,1-6.19,2.56V104A36.07,36.07,0,0,0,9.43,101.31Z"/><path d="M2.23,104.16l.69-.94c-.29.09-.57.19-.88.26v.68Z"/><polygon points="2.22 98.34 2.04 98.03 2.04 98.57 2.22 98.34"/><rect x="50.54" y="90.68" width="0.53" height="10.66"/><path d="M2.38,90.85A2.81,2.81,0,0,1,2,90.5v1a4.77,4.77,0,0,0,.88.58v-.83A3.49,3.49,0,0,1,2.38,90.85Z"/><path d="M7.85,92.52v-.38L7.47,92a7.19,7.19,0,0,1-4.55-.72v.83a7.55,7.55,0,0,0,3.77.71,6.89,6.89,0,0,1-3.77,1.33v.74C4.84,94.66,7,94.06,7.85,92.52Z"/><path d="M2.92,94.87v-.74c-.3,0-.6.07-.88.08v.73Z"/><path d="M2,101.61v.74l.88-.17v-.73C2.63,101.5,2.32,101.57,2,101.61Z"/><path d="M2.92,81.81v-.94A6.37,6.37,0,0,0,2,81.7v1.16A6.06,6.06,0,0,1,2.92,81.81Z"/><path d="M2.92,81.81a6.71,6.71,0,0,1,5-1.66c4.56.13,6.1,4.42,6.59,7a7.39,7.39,0,0,1,.14,1.4,7.05,7.05,0,0,1-.22,1.83c-.8,3.44-3.24,9.41-10.45,10.91l-1.07.2v.73c.4-.07.79-.13,1.2-.22,7.9-1.64,10.35-8.56,11-11.45a9,9,0,0,0,.23-2A7.32,7.32,0,0,0,15.23,87C14.69,84.21,13,79.57,8,79.42H7.62a7.45,7.45,0,0,0-4.7,1.45v.94Z"/><polygon points="2.04 73.01 2.04 73.82 2.92 74.26 2.92 73.45 2.04 73.01"/><path d="M8.6,76.29,2.92,73.45v.81l5.35,2.68.17,0,.33-.2A.36.36,0,0,0,8.6,76.29Z"/><polygon points="21.72 72.8 21.68 72.8 20.83 70.12 19.43 70.09 19.3 74.19 20.23 74.22 20.29 71.31 20.32 71.31 21.27 74.25 21.96 74.28 23.11 71.41 23.14 71.41 23.01 74.31 23.99 74.34 24.13 70.23 22.69 70.18 21.72 72.8"/><polygon points="27.43 72.91 27.24 72.08 28.89 71.7 28.71 70.92 27.05 71.31 26.88 70.55 28.63 70.14 28.45 69.33 25.75 69.95 26.68 73.96 29.48 73.31 29.28 72.47 27.43 72.91"/><path d="M15.71,69.07l-2.94,3.34,1,.34.55-.66,1.51.49.05.87,1,.35-.31-4.44Zm-.85,2.35.94-1.17,0,1.5Z"/><polygon points="34.23 66.76 35.86 70.54 36.78 70.14 35.14 66.36 34.23 66.76"/><polygon points="60.41 65.39 61.03 67.64 58.95 69.22 60.08 69.61 61.37 68.53 61.44 68.86 61.44 65.74 60.41 65.39"/><polygon points="58.77 65.71 58.97 64.89 56.28 64.24 55.32 68.23 58.09 68.91 58.3 68.09 56.45 67.64 56.65 66.81 58.3 67.21 58.49 66.44 56.83 66.04 57.02 65.28 58.77 65.71"/><path d="M43.45,64l-1.1,4.32,1.07-.17.19-.84L45.17,67l.45.74,1.08-.17-2.31-3.8Zm.31,2.48L44.07,65l.71,1.31Z"/><polygon points="50.55 66.19 50.54 66.19 48.91 63.5 47.78 63.48 47.74 67.6 48.7 67.6 48.7 64.92 48.73 64.92 50.35 67.61 51.48 67.63 51.51 63.53 50.55 63.51 50.55 66.19"/><path d="M35,32.79A17.08,17.08,0,0,0,44.5,45.51a3.61,3.61,0,0,1,.56-.54c-4.64-1.92-8.21-6.5-9.3-12.18Z"/><path d="M45.93,44.46c-2.42-2.28-4.23-6.53-4.8-11.67H40.4c.59,5.2,2.42,9.58,4.89,12A3.06,3.06,0,0,1,45.93,44.46Z"/><path d="M47.61,43.87a34.18,34.18,0,0,1-2.18-11.08h-.51A34.27,34.27,0,0,0,47.1,44C47.27,44,47.44,43.91,47.61,43.87Z"/><polygon points="49.45 43.67 49.89 43.63 49.98 43.65 49.98 32.79 49.45 32.79 49.45 43.67"/><path d="M52.66,44a34.77,34.77,0,0,0,2.19-11.23h-.52a33.13,33.13,0,0,1-2.18,11.08C52.33,43.91,52.49,44,52.66,44Z"/><path d="M59.37,32.79h-.73c-.59,5.14-2.4,9.39-4.81,11.67a3.34,3.34,0,0,1,.64.37C56.94,42.37,58.78,38,59.37,32.79Z"/><path d="M23.37,32.71,19.24,46.34a.37.37,0,0,0,.25.45l.11,0a.38.38,0,0,0,.35-.27l4.18-13.83Z"/><path d="M21.56,54.94l.09,0a.38.38,0,0,0,.36-.28l5.55-22H26.8l-5.5,21.8A.35.35,0,0,0,21.56,54.94Z"/><path d="M49.89,48.54A19.16,19.16,0,0,1,31,32.7H30l-4.74,22.1a.36.36,0,0,0,.28.43h.06A.36.36,0,0,0,26,55l4.56-21.18a19.92,19.92,0,0,0,1.91,5.06l-2.5,14.91a.36.36,0,0,0,.3.42l.06,0a.38.38,0,0,0,.36-.31L33,39.81a19.93,19.93,0,0,0,2.32,3L34,52.84a.37.37,0,0,0,.31.42h.05A.39.39,0,0,0,34.7,53L36,43.53a21.35,21.35,0,0,0,2.84,2.35l-.63,6.56a.34.34,0,0,0,.32.38l0,0a.36.36,0,0,0,.35-.34l.6-6.19a19.62,19.62,0,0,0,2.85,1.46l-.48,8a.37.37,0,0,0,.34.39h0a.38.38,0,0,0,.37-.34L43,48a17.55,17.55,0,0,0,2.62.76l-.2,6.28a.36.36,0,0,0,.35.38h0a.35.35,0,0,0,.35-.36L46.36,49a19.92,19.92,0,0,0,2.92.29v6.13a.35.35,0,0,0,.36.35.36.36,0,0,0,.37-.35V49.27A22.55,22.55,0,0,0,53.23,49l.23,6a.38.38,0,0,0,.37.36h0a.39.39,0,0,0,.34-.39L54,48.85A19.94,19.94,0,0,0,57,48l.62,8.71a.37.37,0,0,0,.35.34h0a.37.37,0,0,0,.34-.39l-.63-9a17,17,0,0,0,2.61-1.36l.62,6.19a.38.38,0,0,0,.37.34l0,0a.32.32,0,0,0,.14,0V50.56L61,45.86c.16-.1.31-.21.46-.32v-.9A19,19,0,0,1,49.89,48.54Z"/><path d="M8.05,28.89l2.7,5.49a25.86,25.86,0,0,1-8.6,3.52h.77v.56a25.57,25.57,0,0,0,8.51-3.67l.24-.19L8.4,28l-.31.14A27.62,27.62,0,0,1,2,29.9v.74A27.78,27.78,0,0,0,8.05,28.89Z"/><path d="M2.15,37.9l-.11,0v.74l.88-.21V37.9Z"/><polygon points="27.96 28.3 27.98 28.3 28.85 31.03 29.62 31.03 30.77 27.1 29.88 27.1 29.23 29.68 29.22 29.68 28.4 27.1 27.59 27.1 26.77 29.62 26.76 29.62 26.14 27.1 25.2 27.1 26.36 31.03 27.1 31.03 27.96 28.3"/><path d="M39.34,28.29a1.35,1.35,0,0,0-.11-.57l-.33-.38a1.61,1.61,0,0,0-.48-.2,3.4,3.4,0,0,0-.57,0H36.33V31h.87V29.45h.43L38.45,31h1l-1-1.66a1,1,0,0,0,.64-.37A1.13,1.13,0,0,0,39.34,28.29Zm-1,.25-.19.12-.23.05H37.2v-.9h.57l.24,0,.21.06.16.14.06.23Z"/><polygon points="40.25 27.1 40.25 31.03 42.72 31.03 42.72 30.22 41.12 30.22 41.12 27.1 40.25 27.1"/><path d="M46.44,30.52a1.83,1.83,0,0,0,.48-.61,1.87,1.87,0,0,0,.18-.85,2.11,2.11,0,0,0-.18-.91,1.67,1.67,0,0,0-.51-.6,1.94,1.94,0,0,0-.75-.36,4.17,4.17,0,0,0-.88-.09H43.47V31h1.42a3,3,0,0,0,.84-.13A2.11,2.11,0,0,0,46.44,30.52Zm-1.66-.3h-.45V27.89h.53a2.24,2.24,0,0,1,.51.07,1.32,1.32,0,0,1,.43.2l.3.36a1.29,1.29,0,0,1,.1.51,1.56,1.56,0,0,1-.1.56l-.31.37a1.11,1.11,0,0,1-.44.2A2.12,2.12,0,0,1,44.78,30.22Z"/><polygon points="56.06 27.89 56.06 27.1 53.38 27.1 53.38 31.03 56.15 31.03 56.15 30.22 54.25 30.22 54.25 29.42 55.95 29.42 55.95 28.63 54.25 28.63 54.25 27.89 56.06 27.89"/><path d="M60.14,28.29a1.2,1.2,0,0,0-.12-.57l-.33-.38a1.6,1.6,0,0,0-.46-.2,3.48,3.48,0,0,0-.57,0H57.13V31H58V29.45h.44L59.25,31h1l-1-1.66a1.09,1.09,0,0,0,.64-.37A1.19,1.19,0,0,0,60.14,28.29Zm-1,.25-.17.12-.25.05H58v-.9h.58l.23,0,.23.06.14.14.06.23Z"/><polygon points="61.44 27.1 60.62 27.1 61.44 29.16 61.44 27.1"/><path d="M9.43,25.53h0l4.67,9.54A34.62,34.62,0,0,1,2.92,39.68v.73a35.56,35.56,0,0,0,11.9-4.93l.24-.17L9.79,24.54l-.68.34A33.77,33.77,0,0,1,2,27.71v.73A33.16,33.16,0,0,0,9.43,25.53Z"/><path d="M2,39.86v.72l.88-.17v-.73Z"/><polygon points="2.22 22.56 2.04 22.26 2.04 22.79 2.22 22.56"/><path d="M7.85,16.75v-.4l-.37-.14s-3.18.58-5.09-1.13A3.73,3.73,0,0,1,2,14.73v1A6.79,6.79,0,0,0,6.69,17c-1.1,1-3,1.31-4.65,1.4v.73C4.14,19.05,6.81,18.53,7.85,16.75Z"/><rect x="49.45" y="14.61" width="0.53" height="10.66"/><path d="M7.93,4.37c4.56.14,6.1,4.41,6.59,7a7.57,7.57,0,0,1,.14,1.41,7.21,7.21,0,0,1-.22,1.83C13.64,18,11.2,24,4,25.47c-.68.14-1.33.27-1.95.37v.73c.67-.11,1.36-.24,2.08-.39,7.9-1.64,10.35-8.55,11-11.44a9.09,9.09,0,0,0,.23-2,7.37,7.37,0,0,0-.16-1.56C14.69,8.44,13,3.8,8,3.64H7.62A7,7,0,0,0,2,5.92V7.08C3,5.66,4.73,4.28,7.93,4.37Z"/><polygon points="1.42 148.66 1.29 148.96 2.04 149.33 2.04 147.01 1.42 148.66"/><polygon points="1.13 72.55 2.04 70.11 2.04 68.05 0.34 72.59 0.21 72.91 2.04 73.82 2.04 73.01 1.13 72.55"/><path d="M61.44,151.22h.68l-.68-.27Z"/><path d="M117.46,149.27a18.49,18.49,0,0,0,.48,1.95h.76c-.19-.64-.37-1.28-.5-1.95Z"/><path d="M122.85,149.27c.07.67.18,1.31.3,1.95h.73c-.12-.64-.23-1.28-.31-1.95Z"/><path d="M127.36,149.27c0,.67.09,1.31.15,1.95H128q-.09-.94-.15-1.95Z"/><rect x="131.9" y="149.27" width="0.53" height="1.95"/><path d="M136.77,149.27q-.06,1-.15,1.95h.52c.06-.64.12-1.28.16-1.95Z"/><path d="M141.08,149.27c-.07.67-.18,1.31-.3,1.95h.73c.12-.64.23-1.28.3-1.95Z"/><path d="M146.45,149.27a18,18,0,0,1-.5,1.95h.77c.18-.64.35-1.29.48-1.95Z"/><polygon points="105.81 149.21 105.2 151.22 105.96 151.22 106.57 149.21 105.81 149.21"/><polygon points="109.26 149.21 108.75 151.22 109.5 151.22 110.01 149.21 109.26 149.21"/><polygon points="154.39 149.21 154.89 151.22 155.64 151.22 155.13 149.21 154.39 149.21"/><polygon points="157.61 149.21 158.16 151.22 158.92 151.22 158.37 149.21 157.61 149.21"/><path d="M112.76,149.18v0h-.3l-.43,2h.74l.21-1c.07.32.15.64.25,1H114a17.81,17.81,0,0,1-.49-2Z"/><polygon points="75.18 149.72 78.04 149.98 78.12 149.13 76.22 148.96 76.3 148.11 78 148.26 78.08 147.47 76.37 147.32 76.43 146.54 78.23 146.7 78.31 145.88 75.57 145.62 75.18 149.72"/><path d="M73.46,145.52a1.53,1.53,0,0,0-.44-.29,2.65,2.65,0,0,0-.56-.19l-1.53-.34-.87,4,.94.22.34-1.6.33.07.53,1.79,1.12.25-.66-1.95a1.24,1.24,0,0,0,.7-.26,1.29,1.29,0,0,0,.37-1.24A1.16,1.16,0,0,0,73.46,145.52Zm-.82,1.1-.2.13h-.23l-.25,0-.46-.11.2-.93.51.11.23.06.2.13.11.17,0,.23Z"/><polygon points="111.68 146.16 111.66 146.16 110.84 143.57 110.04 143.57 109.22 146.1 109.2 146.1 108.58 143.57 107.64 143.57 108.8 147.5 109.54 147.5 110.41 144.78 110.42 144.78 111.29 147.5 112.06 147.5 113.21 143.57 112.34 143.57 111.68 146.16"/><path d="M121.56,145.48a1.09,1.09,0,0,0,.22-.71,1.25,1.25,0,0,0-.11-.58l-.33-.37a1.15,1.15,0,0,0-.48-.18,2,2,0,0,0-.55-.07h-1.53v3.93h.86v-1.56h.44l.82,1.56h1l-1-1.65A1,1,0,0,0,121.56,145.48Zm-.74-.47-.17.13-.25.06h-.76v-.9h.57l.24,0,.21.06.16.14.06.25Z"/><polygon points="123.56 143.57 122.69 143.57 122.69 147.5 125.17 147.5 125.17 146.72 123.56 146.72 123.56 143.57"/><path d="M128.86,144a2,2,0,0,0-.75-.34,3.68,3.68,0,0,0-.89-.11h-1.3v3.93h1.41a2.89,2.89,0,0,0,.84-.12,2.38,2.38,0,0,0,.71-.37,1.73,1.73,0,0,0,.48-.62,1.92,1.92,0,0,0,.18-.84,2.19,2.19,0,0,0-.18-.92A1.88,1.88,0,0,0,128.86,144Zm-.32,2-.3.37a1.28,1.28,0,0,1-.44.21,3.17,3.17,0,0,1-.56.07h-.45v-2.34h.51a1.78,1.78,0,0,1,.51.06,1.17,1.17,0,0,1,.43.22l.3.34a1,1,0,0,1,.11.51A1.17,1.17,0,0,1,128.54,146.07Z"/><polygon points="136.71 145.91 138.41 145.91 138.41 145.11 136.71 145.11 136.71 144.38 138.5 144.38 138.5 143.57 135.84 143.57 135.84 147.5 138.61 147.5 138.61 146.72 136.71 146.72 136.71 145.91"/><path d="M142.37,145.48a1.22,1.22,0,0,0,.22-.71,1.24,1.24,0,0,0-.13-.58l-.32-.37a1.21,1.21,0,0,0-.47-.18,2.12,2.12,0,0,0-.57-.07h-1.53v3.93h.88v-1.56h.42l.82,1.56h1.05l-1-1.65A1,1,0,0,0,142.37,145.48Zm-.76-.47-.17.13-.23.06h-.76v-.9H141l.25,0,.21.06.16.14.06.25Z"/><polygon points="145.04 146.16 145.03 146.16 144.06 143.57 143.07 143.57 144.64 147.5 145.34 147.5 146.95 143.57 146.03 143.57 145.04 146.16"/><rect x="147.63" y="143.57" width="0.87" height="3.93"/><polygon points="156.35 144.38 156.35 143.57 153.68 143.57 153.68 147.5 156.45 147.5 156.45 146.72 154.54 146.72 154.54 145.91 156.25 145.91 156.25 145.11 154.54 145.11 154.54 144.38 156.35 144.38"/><path d="M69,144.43a1.4,1.4,0,0,0-.42-.38,4.56,4.56,0,0,0-.59-.26l-1.44-.46-1.27,3.9.95.31.48-1.47.48.15a2.37,2.37,0,0,0,.6.12,1.7,1.7,0,0,0,.56,0,1.14,1.14,0,0,0,.46-.27,1.24,1.24,0,0,0,.33-.54,1.4,1.4,0,0,0,.06-.6A1,1,0,0,0,69,144.43Zm-.82.77-.13.2-.2.09-.23,0-.26-.06-.41-.13.3-.93.42.14.24.1.19.14.11.18Z"/><polygon points="64.06 142.32 62.93 143.28 62.62 141.84 61.49 141.44 62.11 143.7 61.44 144.21 61.44 145.44 62.45 144.58 62.84 146.25 63.98 146.65 63.28 144.12 65.16 142.71 64.06 142.32"/><path d="M61.6,147.43l-.16-.07v.79c2.22.9,4.74,1.92,7.75,2.88l.66.19h3a32.39,32.39,0,0,1-3.45-.88C66.36,149.38,63.84,148.34,61.6,147.43Z"/><path d="M93.78,147.8l-3.28-6.65-.33.13a26.84,26.84,0,0,1-19.74.7,85.64,85.64,0,0,0-9-3.14v.76a82.71,82.71,0,0,1,8.71,3.05,27.64,27.64,0,0,0,20-.58l2.69,5.5a26,26,0,0,1-9.16,3.65h2.88a24.59,24.59,0,0,0,7-3.24Z"/><path d="M97.16,148.51l-5.27-10.77-.68.34c-5.34,2.65-12.64,6.3-26.26,0a31.55,31.55,0,0,0-3.51-1.39v.75a31.33,31.33,0,0,1,3.22,1.29c13.92,6.46,21.71,2.58,26.87,0h0l4.69,9.54a35.66,35.66,0,0,1-5.78,3h1.82a31.61,31.61,0,0,0,4.62-2.54Z"/><path d="M61.44,150.09c.94.4,1.85.77,2.77,1.13h2.11c-1.63-.56-3.22-1.2-4.88-1.91Z"/><rect x="131.9" y="131.11" width="0.53" height="10.66"/><path d="M88.41,119a5.41,5.41,0,0,0-3.48,1.82,5.33,5.33,0,0,0-.93,4.2c0,.15.9,3.86,4,3.86a4.32,4.32,0,0,0,3-1.5,3.72,3.72,0,0,0,.45-3.23l-.11-.45-.12.06a2.27,2.27,0,0,0-1.67-1.14A2.38,2.38,0,0,0,87.65,124a.36.36,0,0,0,.09.51.37.37,0,0,0,.51-.1c.44-.65.85-1,1.23-1s1,.66,1.14.94l.08.12a3,3,0,0,1-.34,2.54,3.62,3.62,0,0,1-2.42,1.21c-2.46,0-3.21-3.27-3.21-3.27a4.5,4.5,0,0,1,.77-3.62,4.88,4.88,0,0,1,3-1.56,5.09,5.09,0,0,1,4.15.76,6.37,6.37,0,0,1,2.1,4,12,12,0,0,1-4.41,9.46c-10.92,6.69-15.76,1-16,.77a.37.37,0,0,0-.51-.05.36.36,0,0,0-.05.51A8.22,8.22,0,0,0,78,137.56a10.52,10.52,0,0,0,2.7.32c2.51,0,5.87-.76,10.07-3.34a12.53,12.53,0,0,0,4.74-10.1,7,7,0,0,0-2.4-4.5,5.15,5.15,0,0,0-3.24-1A8.13,8.13,0,0,0,88.41,119Z"/><path d="M89.72,116.84a7.16,7.16,0,0,0-7.42,6.31c-.22,2.56.35,4.46,1.7,5.67a6.66,6.66,0,0,0,4.79,1.4c-2.11,1.89-7.33,1.38-7.39,1.37h-.09c-.42.06-1.69.29-1.78,1.15s1.79,2.13,3.18,2.81c-2.42.14-5.18-1.13-7.27-2.1a9.06,9.06,0,0,0-3.35-1.18.85.85,0,0,0-.78.48c-.28.62.28,1.8,1,2.89-3.26-2.66-7.81-6.2-8.74-5.94a.62.62,0,0,0-.4.36c-.42.91.91,4,1.75,5.83l-3.19-1.28-.25-.1v.86h.24l3.66,1.49a.37.37,0,0,0,.4.15c5.31,2.07,9,3.2,13.26,3.2a35.78,35.78,0,0,0,7.23-.85c7.87-1.64,10.33-8.55,11-11.45a8.18,8.18,0,0,0,.07-3.55c-.54-2.74-2.21-7.38-7.28-7.54Zm6.9,7.69a7.34,7.34,0,0,1-.07,3.23c-.81,3.44-3.27,9.41-10.48,10.91-8.18,1.7-12.33.73-20.2-2.37-1.19-2.46-2.28-5.29-2.11-5.88,1,.17,5.87,3.93,10.2,7.59l.49,0,0-.5c-1.39-1.73-2.73-3.92-2.5-4.44l.18,0a9.9,9.9,0,0,1,3,1.1c2.53,1.17,6,2.78,8.93,2l.26-.33-.21-.35c-1.88-.81-3.93-2.06-3.87-2.59,0-.11.26-.34,1.14-.51.68.08,6.84.57,8.58-2.37l0-.4-.37-.14a8,8,0,0,1-1.29.1,5.69,5.69,0,0,1-3.8-1.23c-1.16-1.05-1.66-2.75-1.46-5.05a6.42,6.42,0,0,1,7-5.65C94.6,117.71,96.11,122,96.62,124.53Z"/><path d="M68.87,135.9a30.38,30.38,0,0,1-3.16-3.77.35.35,0,0,0-.28-.14.39.39,0,0,0-.23.07.36.36,0,0,0-.06.5c1.07,1.41,2.92,3.81,3.43,4l.14,0,.34-.23A.35.35,0,0,0,68.87,135.9Z"/><path d="M91.08,131.41a8.52,8.52,0,0,0,2.2-7.41,3.79,3.79,0,0,0-1.78-2.81,3.74,3.74,0,0,0-1.85-.45,5.74,5.74,0,0,0-1.91.34A3.39,3.39,0,0,0,86,124.93a2.44,2.44,0,0,0,2,1.91,1.89,1.89,0,0,0,1.76-2.06.37.37,0,0,0-.36-.37.38.38,0,0,0-.37.37c0,.14,0,1.33-1,1.33-.45,0-1.09-.53-1.33-1.38a2.58,2.58,0,0,1,1.36-3,4.21,4.21,0,0,1,3.08.09,3.2,3.2,0,0,1,1.42,2.32,8,8,0,0,1-2,6.81s-1.87,2.62-7.35,2.23a.39.39,0,0,0-.39.34.37.37,0,0,0,.34.39c.4,0,.79,0,1.15,0C89.32,134,91.05,131.48,91.08,131.41Z"/><path d="M65.84,108.84h-.75a17.66,17.66,0,0,1-3.65,7.91v1.12A18.41,18.41,0,0,0,65.84,108.84Z"/><path d="M78.79,130.66h.09a.36.36,0,0,0,.26-.45l-5.37-21.43H73l5.43,21.61A.34.34,0,0,0,78.79,130.66Z"/><path d="M80.42,122.86h.1a.37.37,0,0,0,.25-.45L77,108.78h-.76l3.82,13.82A.36.36,0,0,0,80.42,122.86Z"/><path d="M74.39,130.44a.38.38,0,0,0,.36.29h.08a.35.35,0,0,0,.27-.43l-4.47-21.52h-.09v0H69.8a19.22,19.22,0,0,1-8.36,12.72v1.68l.54,5.42a.38.38,0,0,0,.38.32h0a.36.36,0,0,0,.32-.4l-.65-6.56a20.59,20.59,0,0,0,2.68-2.18L66,129.06a.38.38,0,0,0,.36.33h0a.37.37,0,0,0,.31-.42l-1.3-9.85a18.92,18.92,0,0,0,2.25-2.88l2.32,14.26a.35.35,0,0,0,.35.31h0a.37.37,0,0,0,.31-.42L68.2,115.31a19.83,19.83,0,0,0,2-5Z"/><polygon points="104.16 111.43 104.13 111.43 103.28 108.77 101.87 108.72 101.74 112.82 102.67 112.85 102.75 109.96 102.77 109.96 103.71 112.9 104.41 112.91 105.56 110.05 105.58 110.05 105.46 112.94 106.43 112.97 106.57 108.87 105.13 108.83 104.16 111.43"/><polygon points="156.56 112.29 159.4 112.56 159.48 111.7 157.58 111.53 157.65 110.68 159.36 110.84 159.43 110.05 157.73 109.89 157.79 109.12 159.6 109.29 159.68 108.46 156.93 108.21 156.56 112.29"/><polygon points="109.87 111.55 109.68 110.72 111.34 110.33 111.17 109.56 109.5 109.94 109.32 109.18 111.07 108.78 110.89 107.96 108.19 108.59 109.12 112.59 111.92 111.94 111.72 111.12 109.87 111.55"/><path d="M98.15,107.7,95.21,111l1,.34.55-.66,1.5.51,0,.86,1,.36L99.07,108Zm-.85,2.35,1-1.16,0,1.5Z"/><path d="M154.82,108.12a1.29,1.29,0,0,0-.45-.31,2,2,0,0,0-.55-.19l-1.53-.34-.87,4,.94.2.34-1.59.33.08.52,1.78,1.15.24-.68-1.94a1.13,1.13,0,0,0,.69-.27,1.09,1.09,0,0,0,.38-.63,1.4,1.4,0,0,0,0-.33c0-.1,0-.2,0-.27A1,1,0,0,0,154.82,108.12Zm-.82,1.1-.18.1-.25,0-.25,0-.46-.09.2-1,.53.11.21.08.2.11.11.17,0,.24Z"/><path d="M150.34,107a1.69,1.69,0,0,0-.42-.37,4.55,4.55,0,0,0-.59-.25l-1.42-.48-1.29,3.92.95.31.48-1.49.48.16a2.55,2.55,0,0,0,.6.12,1.47,1.47,0,0,0,.56,0,.88.88,0,0,0,.46-.26,1.24,1.24,0,0,0,.33-.54,2,2,0,0,0,.07-.46s0-.1,0-.14A1,1,0,0,0,150.34,107Zm-.81.78-.14.2-.2.11H149l-.26-.07-.41-.12.3-.93.42.14.24.09.19.14.11.19Z"/><polygon points="116.67 105.41 118.31 109.17 119.22 108.77 117.59 105.01 116.67 105.41"/><polygon points="145.42 104.91 144.29 105.87 143.98 104.42 142.85 104.03 143.47 106.29 141.41 107.87 142.53 108.25 143.81 107.17 144.19 108.83 145.35 109.23 144.64 106.69 146.51 105.28 145.42 104.91"/><polygon points="63.67 105.73 62.7 103.15 61.71 103.15 63.27 107.08 63.97 107.08 65.59 103.15 64.66 103.15 63.67 105.73"/><rect x="66.27" y="103.15" width="0.87" height="3.93"/><polygon points="75 103.95 75 103.15 72.32 103.15 72.32 107.08 75.09 107.08 75.09 106.29 73.19 106.29 73.19 105.49 74.89 105.49 74.89 104.68 73.19 104.68 73.19 103.95 75 103.95"/><polygon points="141.21 104.34 141.41 103.54 138.72 102.89 137.76 106.88 140.54 107.56 140.75 106.72 138.89 106.28 139.09 105.44 140.75 105.86 140.93 105.08 139.28 104.68 139.46 103.92 141.21 104.34"/><path d="M125.89,102.59l-1.1,4.32,1.07-.15.19-.86,1.56-.23.45.76,1.08-.17-2.29-3.81Zm.31,2.49.31-1.47.71,1.32Z"/><polygon points="133 104.84 132.98 104.84 131.35 102.13 130.22 102.13 130.18 106.23 131.14 106.24 131.15 103.55 131.17 103.55 132.79 106.26 133.92 106.28 133.95 102.16 133 102.16 133 104.84"/><path d="M61.44,92.52v1.1a17.74,17.74,0,0,1,3.61,7.72h.74A18.23,18.23,0,0,0,61.44,92.52Z"/><path d="M82.2,79.17S76,81.89,63,76l-1.55-.66v.79l1.24.54c6.92,3.14,11.91,3.91,15.16,3.91a12.35,12.35,0,0,0,4.67-.72.37.37,0,0,0,.19-.48A.39.39,0,0,0,82.2,79.17Z"/><path d="M117.46,71.44A17.08,17.08,0,0,0,127,84.15a3.18,3.18,0,0,1,.55-.55c-4.64-1.91-8.21-6.5-9.3-12.16Z"/><path d="M128.37,83.09c-2.41-2.26-4.21-6.53-4.8-11.65h-.72c.58,5.19,2.41,9.56,4.88,12C127.94,83.33,128.14,83.21,128.37,83.09Z"/><path d="M130.05,82.51a33.72,33.72,0,0,1-2.16-11.07h-.53a34.4,34.4,0,0,0,2.18,11.21Z"/><polygon points="131.9 82.3 132.33 82.28 132.42 82.28 132.42 71.44 131.9 71.44 131.9 82.3"/><path d="M135.11,82.65a34.9,34.9,0,0,0,2.19-11.21h-.53a33.12,33.12,0,0,1-2.18,11.07Z"/><path d="M141.81,71.44h-.73c-.58,5.12-2.39,9.39-4.81,11.65a6.55,6.55,0,0,1,.65.37C139.4,81,141.22,76.63,141.81,71.44Z"/><path d="M137.7,84.15c4.78-2.09,8.41-6.87,9.5-12.71h-.75c-1.1,5.66-4.65,10.25-9.31,12.16A2.93,2.93,0,0,1,137.7,84.15Z"/><path d="M105.81,71.36,101.7,85a.22.22,0,0,0,0,.11.36.36,0,0,0,.25.36H102a.38.38,0,0,0,.35-.26l4.18-13.83Z"/><path d="M109.26,71.36l-5.52,21.78s0,0,0,.08a.38.38,0,0,0,.28.37l.09,0a.39.39,0,0,0,.36-.28l5.56-22Z"/><path d="M155.13,71.36h-.74L159.8,93a.36.36,0,0,0,.34.28l.1,0a.38.38,0,0,0,.28-.37s0,0,0-.07Z"/><path d="M161.78,85.45h.1a.35.35,0,0,0,.26-.34.22.22,0,0,0,0-.11l-3.76-13.63h-.75l3.82,13.81A.38.38,0,0,0,161.78,85.45Z"/><path d="M152,71.36h-.09v0h-.73a19.12,19.12,0,0,1-37.68,0h-.73v0h-.3l-4.75,22.08s0,0,0,.07a.36.36,0,0,0,.29.36h.08a.35.35,0,0,0,.34-.29L113,72.41a19.9,19.9,0,0,0,1.9,5.06L112.39,92.4v.08a.34.34,0,0,0,.29.34h.06a.37.37,0,0,0,.36-.3l2.33-14.06a22.17,22.17,0,0,0,2.33,3.05l-1.34,10v.07a.34.34,0,0,0,.31.33h0a.37.37,0,0,0,.36-.32l1.25-9.41a20,20,0,0,0,2.85,2.34l-.64,6.56v0a.38.38,0,0,0,.33.37h0a.35.35,0,0,0,.35-.33l.61-6.18a21,21,0,0,0,2.84,1.45l-.48,8v0a.36.36,0,0,0,.34.34h0a.36.36,0,0,0,.37-.34l.45-7.77a19.36,19.36,0,0,0,2.63.76l-.19,6.26v0a.38.38,0,0,0,.34.36h0a.36.36,0,0,0,.36-.36l.2-6.14a19.65,19.65,0,0,0,2.9.3V94a.37.37,0,0,0,.36.37.38.38,0,0,0,.37-.37v-6.1a21.18,21.18,0,0,0,3.22-.28l.23,6a.38.38,0,0,0,.37.34h0a.34.34,0,0,0,.34-.34v0l-.23-6.08a19.3,19.3,0,0,0,3-.89l.61,8.72a.35.35,0,0,0,.35.33h0a.37.37,0,0,0,.34-.36v0l-.63-8.94A21.09,21.09,0,0,0,142.74,85l.62,6.18a.35.35,0,0,0,.35.33h0a.38.38,0,0,0,.32-.37v0l-.65-6.56a21.34,21.34,0,0,0,2.66-2.17l1.24,9.32a.36.36,0,0,0,.36.3h0a.39.39,0,0,0,.33-.4l-1.32-9.87A17.72,17.72,0,0,0,149,78.82l2.33,14.26a.36.36,0,0,0,.35.31l0,0A.37.37,0,0,0,152,93v0l-2.45-15.08a19.33,19.33,0,0,0,2-5L155.75,93a.37.37,0,0,0,.36.28h.07a.38.38,0,0,0,.3-.35s0,0,0-.08Z"/><polygon points="77.04 73.08 75.14 72.91 75.21 72.05 76.91 72.21 76.99 71.42 75.29 71.27 75.35 70.48 77.15 70.65 77.22 69.81 74.48 69.56 74.1 73.65 76.96 73.91 77.04 73.08"/><path d="M70.26,71.28l.33.06.52,1.8,1.13.23-.66-1.93a1.22,1.22,0,0,0,.69-.27,1.29,1.29,0,0,0,.37-1.25,1.26,1.26,0,0,0-.26-.45,1.63,1.63,0,0,0-.45-.31,2.94,2.94,0,0,0-.55-.18l-1.54-.33-.88,4,1,.2Zm.36-1.64.51.11.23.06.19.11.12.17v.25l-.12.23-.2.11-.23,0-.25,0-.46-.11Z"/><path d="M67.89,68.36a1.11,1.11,0,0,0-.43-.36,2.12,2.12,0,0,0-.57-.26l-1.44-.47-1.27,3.9.94.31L65.6,70l.48.16a2.54,2.54,0,0,0,.61.12,1.64,1.64,0,0,0,.55,0,1.09,1.09,0,0,0,.47-.28,1.16,1.16,0,0,0,.32-.53,1.3,1.3,0,0,0,.06-.6A1,1,0,0,0,67.89,68.36Zm-.82.77-.12.22-.2.09-.23,0-.27-.07-.4-.14.3-.91.41.13.25.1.19.14.1.19Z"/><polygon points="62.98 66.27 61.85 67.23 61.54 65.77 61.44 65.74 61.44 68.86 61.75 70.2 62.9 70.58 62.2 68.05 64.07 66.64 62.98 66.27"/><polygon points="110.41 66.95 110.42 66.95 111.29 69.66 112.06 69.66 113.21 65.73 112.34 65.73 111.68 68.33 111.66 68.33 110.84 65.73 110.04 65.73 109.22 68.25 109.2 68.25 108.58 65.73 107.64 65.73 108.8 69.66 109.54 69.66 110.41 66.95"/><path d="M121.78,66.92a1.23,1.23,0,0,0-.11-.57l-.33-.38a2.2,2.2,0,0,0-.48-.18,3.31,3.31,0,0,0-.55-.06h-1.53v3.93h.86V68.09h.44l.82,1.57h1l-1-1.66a.89.89,0,0,0,.62-.37A1.06,1.06,0,0,0,121.78,66.92Zm-1,.25-.17.14-.25,0h-.76v-.88h.57l.24,0,.21.06.16.14.06.23Z"/><polygon points="122.69 65.73 122.69 69.66 125.17 69.66 125.17 68.87 123.56 68.87 123.56 65.73 122.69 65.73"/><path d="M128.88,69.16a1.73,1.73,0,0,0,.48-.62,1.78,1.78,0,0,0,.18-.83,2.13,2.13,0,0,0-.18-.92,1.88,1.88,0,0,0-.5-.61,2,2,0,0,0-.75-.34,3.68,3.68,0,0,0-.89-.11h-1.3v3.93h1.41a2.35,2.35,0,0,0,.84-.13A1.72,1.72,0,0,0,128.88,69.16Zm-1.64-.29h-.45V66.53h.51a2.22,2.22,0,0,1,.51.06,1.34,1.34,0,0,1,.43.22l.3.36a1,1,0,0,1,.11.49,1.21,1.21,0,0,1-.11.57l-.3.38a1.48,1.48,0,0,1-.44.2A3.2,3.2,0,0,1,127.24,68.87Z"/><polygon points="138.5 66.53 138.5 65.73 135.84 65.73 135.84 69.66 138.61 69.66 138.61 68.87 136.71 68.87 136.71 68.06 138.41 68.06 138.41 67.26 136.71 67.26 136.71 66.53 138.5 66.53"/><path d="M142.59,66.92a1.23,1.23,0,0,0-.13-.57l-.32-.38a2.56,2.56,0,0,0-.47-.18,3.43,3.43,0,0,0-.57-.06h-1.53v3.93h.88V68.09h.42l.82,1.57h1.05l-1-1.66a1,1,0,0,0,.64-.37A1.18,1.18,0,0,0,142.59,66.92Zm-1,.25-.17.14-.23,0h-.76v-.88H141l.25,0,.21.06.16.14.06.23Z"/><polygon points="146.95 65.73 146.03 65.73 145.04 68.31 145.03 68.31 144.06 65.73 143.07 65.73 144.64 69.66 145.34 69.66 146.95 65.73"/><rect x="147.63" y="65.73" width="0.87" height="3.93"/><polygon points="156.35 66.53 156.35 65.73 153.68 65.73 153.68 69.66 156.45 69.66 156.45 68.87 154.54 68.87 154.54 68.06 156.25 68.06 156.25 67.26 154.54 67.26 154.54 66.53 156.35 66.53"/><path d="M69.07,66.59a27.58,27.58,0,0,0,20-.57l2.7,5.49a27.6,27.6,0,0,1-23.44,2.77c-2.64-.84-4.88-1.72-6.89-2.53v.78c2,.79,4.14,1.63,6.67,2.43a29.88,29.88,0,0,0,9.08,1.44,27.3,27.3,0,0,0,15.26-4.48l.24-.17-3.28-6.66-.32.13a26.75,26.75,0,0,1-19.74.69c-2.91-1.18-5.52-2.1-7.91-2.82v.77C63.75,64.56,66.27,65.46,69.07,66.59Z"/><path d="M96.08,72.46,90.81,61.67l-.68.34c-5.34,2.66-12.64,6.32-26.26,0-.82-.38-1.62-.71-2.43-1v.78c.71.26,1.42.56,2.14.89,13.92,6.46,21.7,2.57,26.87,0h0l4.68,9.56c-1.41.91-8.33,5.14-16.18,5.14A41.18,41.18,0,0,1,61.44,73.7v.79A41.61,41.61,0,0,0,79,78.07c9,0,16.77-5.38,16.85-5.44Z"/><rect x="131.9" y="53.26" width="0.53" height="10.66"/><path d="M61.63,52.44l-.19-1.88v2.23A.36.36,0,0,0,61.63,52.44Z"/><polygon points="104.16 35.65 104.13 35.65 103.28 32.99 101.87 32.95 101.74 37.04 102.67 37.08 102.75 34.18 102.77 34.18 103.71 37.12 104.41 37.14 105.56 34.26 105.58 34.26 105.46 37.17 106.43 37.2 106.57 33.1 105.13 33.05 104.16 35.65"/><path d="M64.75,32.79H64a18.09,18.09,0,0,1-2.57,6.43v1.27A18.65,18.65,0,0,0,64.75,32.79Z"/><path d="M77.7,54.6h.1a.36.36,0,0,0,.26-.43L72.69,32.71h-.76l5.43,21.62A.34.34,0,0,0,77.7,54.6Z"/><path d="M79.34,46.81l.09,0a.35.35,0,0,0,.25-.45L75.92,32.71h-.75L79,46.54A.37.37,0,0,0,79.34,46.81Z"/><path d="M73.31,54.39a.37.37,0,0,0,.36.29h.07a.36.36,0,0,0,.28-.44L69.55,32.71h-.84a19.14,19.14,0,0,1-7.27,11.94v.9a20.44,20.44,0,0,0,2.22-1.84L64.88,53a.37.37,0,0,0,.35.33l0,0a.35.35,0,0,0,.31-.4l-1.3-9.87a19.33,19.33,0,0,0,2.24-2.86l2.32,14.26a.34.34,0,0,0,.36.29h.05a.35.35,0,0,0,.3-.41L67.12,39.24a19.92,19.92,0,0,0,2-5Z"/><polygon points="156.56 36.52 159.4 36.78 159.48 35.93 157.58 35.76 157.65 34.91 159.36 35.06 159.43 34.27 157.73 34.12 157.79 33.35 159.6 33.5 159.68 32.68 156.93 32.42 156.56 36.52"/><polygon points="109.87 35.78 109.68 34.94 111.34 34.55 111.17 33.78 109.5 34.17 109.32 33.41 111.07 33.01 110.89 32.19 108.19 32.8 109.12 36.81 111.92 36.16 111.72 35.34 109.87 35.78"/><path d="M98.15,31.92l-2.94,3.35,1,.34.55-.67,1.5.51,0,.87,1,.34-.32-4.43Zm-.85,2.36,1-1.16,0,1.48Z"/><path d="M150.34,31.23a1.37,1.37,0,0,0-.42-.37,3.54,3.54,0,0,0-.59-.27l-1.42-.46L146.62,34l.95.31.48-1.47.48.15a3.22,3.22,0,0,0,.6.13,1.7,1.7,0,0,0,.56,0,1,1,0,0,0,.46-.26,1.31,1.31,0,0,0,.33-.54,1.46,1.46,0,0,0,.06-.61A.92.92,0,0,0,150.34,31.23Zm-.81.77-.14.2-.2.11H149l-.26-.06-.41-.12.3-.93.42.14.24.09.19.14.11.18Z"/><path d="M154.82,32.34a1.63,1.63,0,0,0-.45-.31,2,2,0,0,0-.55-.18l-1.53-.34-.87,4,.94.22.34-1.59.33.07.52,1.78,1.15.25-.68-2a1.12,1.12,0,0,0,.69-.26,1.19,1.19,0,0,0,.38-.64,1.21,1.21,0,0,0,0-.6A1,1,0,0,0,154.82,32.34Zm-.82,1.1-.18.11h-.25l-.25,0-.46-.1.2-.93.53.11.21.07.2.11.11.17,0,.23Z"/><polygon points="116.67 29.63 118.31 33.39 119.22 32.99 117.59 29.23 116.67 29.63"/><polygon points="145.42 29.12 144.29 30.1 143.98 28.64 142.85 28.24 143.47 30.52 141.41 32.09 142.53 32.48 143.81 31.38 144.19 33.05 145.35 33.45 144.64 30.92 146.51 29.51 145.42 29.12"/><polygon points="141.21 28.57 141.41 27.76 138.72 27.11 137.76 31.1 140.54 31.77 140.75 30.95 138.89 30.5 139.09 29.66 140.75 30.08 140.93 29.31 139.28 28.91 139.46 28.15 141.21 28.57"/><polygon points="62.19 31.03 62.88 31.03 64.51 27.1 63.58 27.1 62.59 29.66 61.61 27.1 61.44 27.1 61.44 29.16 62.19 31.03"/><rect x="65.19" y="27.1" width="0.87" height="3.93"/><polygon points="73.91 27.89 73.91 27.1 71.24 27.1 71.24 31.03 74.01 31.03 74.01 30.22 72.1 30.22 72.1 29.42 73.8 29.42 73.8 28.63 72.1 28.63 72.1 27.89 73.91 27.89"/><path d="M125.89,26.82l-1.1,4.32,1.07-.16.19-.85,1.56-.23.45.74,1.08-.15-2.29-3.81Zm.31,2.49.31-1.47.71,1.32Z"/><polygon points="133 29.06 132.98 29.06 131.35 26.35 130.22 26.35 130.18 30.45 131.14 30.47 131.15 27.78 131.17 27.78 132.79 30.48 133.92 30.48 133.95 26.39 133 26.37 133 29.06"/><path d="M61.44,19.05A17.75,17.75,0,0,1,64,25.27h.75a18.47,18.47,0,0,0-3.27-7.49Z"/><path d="M63.76,1.42c6.92,3.15,11.92,3.93,15.16,3.93A11.39,11.39,0,0,0,83.6,4.6a.36.36,0,0,0,.18-.48A.37.37,0,0,0,83.29,4C83.24,4,77.07,6.68,64.07.77,63.46.49,62.86.24,62.26,0h-.82V.45C62.2.74,63,1.06,63.76,1.42Z"/><path d="M127,8.38a3.23,3.23,0,0,1,.55-.56A15.38,15.38,0,0,1,119.61,0h-.8A16.33,16.33,0,0,0,127,8.38Z"/><path d="M128.37,7.31a16,16,0,0,1-4-7.31h-.74a17.46,17.46,0,0,0,4,7.68C127.94,7.56,128.14,7.43,128.37,7.31Z"/><path d="M130.05,6.74A26.75,26.75,0,0,1,128.32,0h-.53a27.12,27.12,0,0,0,1.75,6.88A4.84,4.84,0,0,1,130.05,6.74Z"/><polygon points="132.33 6.51 132.42 6.51 132.42 0 131.9 0 131.9 6.52 132.33 6.51"/><path d="M135.11,6.88A27.12,27.12,0,0,0,136.86,0h-.52a26.64,26.64,0,0,1-1.75,6.74A5,5,0,0,1,135.11,6.88Z"/><path d="M136.92,7.68A17.26,17.26,0,0,0,141,0h-.74a16.08,16.08,0,0,1-4,7.31C136.51,7.43,136.72,7.56,136.92,7.68Z"/><path d="M137.14,7.82a3,3,0,0,1,.56.56A16.25,16.25,0,0,0,145.84,0H145A15.36,15.36,0,0,1,137.14,7.82Z"/><path d="M101.68,9.31a.34.34,0,0,0,.25.35H102a.35.35,0,0,0,.35-.25L105.24,0h-.76L101.7,9.2A.22.22,0,0,0,101.68,9.31Z"/><path d="M103.72,17.44a.42.42,0,0,0,.28.38h.09a.37.37,0,0,0,.36-.27L108.89,0h-.75l-4.4,17.37S103.72,17.41,103.72,17.44Z"/><path d="M160.14,17.46h.1a.36.36,0,0,0,.26-.45L156.24,0h-.74l4.3,17.2A.35.35,0,0,0,160.14,17.46Z"/><path d="M161.78,9.66h.1a.35.35,0,0,0,.24-.45L159.58,0h-.75l2.6,9.4A.36.36,0,0,0,161.78,9.66Z"/><path d="M156.11,17.54h.07a.36.36,0,0,0,.28-.44L152.91,0h-.74l3.58,17.24A.39.39,0,0,0,156.11,17.54Z"/><path d="M112.39,16.62v.08a.35.35,0,0,0,.29.34h.06a.36.36,0,0,0,.36-.31l2.33-14a21.49,21.49,0,0,0,2.33,3l-1.34,10v.08a.34.34,0,0,0,.31.32h0a.36.36,0,0,0,.36-.31l1.25-9.4a20,20,0,0,0,2.85,2.33l-.64,6.56v0a.38.38,0,0,0,.33.38h0a.35.35,0,0,0,.35-.33l.61-6.19a20,20,0,0,0,2.84,1.46l-.48,8v0a.37.37,0,0,0,.34.35h0a.36.36,0,0,0,.37-.34l.45-7.76a19.33,19.33,0,0,0,2.63.75l-.19,6.27v0a.34.34,0,0,0,.34.34h0a.35.35,0,0,0,.36-.34l.2-6.14a19.65,19.65,0,0,0,2.9.29v6.11a.37.37,0,0,0,.36.37.38.38,0,0,0,.37-.37V12.14a22.55,22.55,0,0,0,3.22-.28l.23,6a.37.37,0,0,0,.37.34h0a.34.34,0,0,0,.34-.34v0l-.23-6.08a20.48,20.48,0,0,0,3-.9l.61,8.71a.35.35,0,0,0,.35.34h0a.36.36,0,0,0,.34-.35v0l-.63-8.95a19.82,19.82,0,0,0,2.63-1.36l.62,6.19a.35.35,0,0,0,.35.33h0a.37.37,0,0,0,.32-.41l-.65-6.56a21.27,21.27,0,0,0,2.66-2.16l1.24,9.31a.38.38,0,0,0,.36.31h0a.4.4,0,0,0,.33-.4l-1.32-9.87A17.37,17.37,0,0,0,149,3l2.33,14.27a.35.35,0,0,0,.35.3h0a.37.37,0,0,0,.31-.42L149.56,2.11a18.79,18.79,0,0,0,1-2.11h-.8a19.14,19.14,0,0,1-17.47,11.41A19.14,19.14,0,0,1,114.85,0h-.78c.25.58.51,1.14.81,1.69Z"/><path d="M107.7,17.74a.36.36,0,0,0,.29.35l.08,0a.35.35,0,0,0,.34-.29L112.25,0h-.74l-3.8,17.66S107.7,17.71,107.7,17.74Z"/><path d="M86.4,0H83.32A28,28,0,0,1,73.25,0h-3.2a29.91,29.91,0,0,0,8.22,1.18A28.67,28.67,0,0,0,86.4,0Z"/><path d="M92.15,0H90.29A28.18,28.18,0,0,1,80.05,2.13,40.22,40.22,0,0,1,66.49,0H64.36A40.87,40.87,0,0,0,80.05,2.86,30.11,30.11,0,0,0,92.15,0Z"/></svg>